<?xml version="1.0" encoding="UTF-8" standalone="no"?>
<!DOCTYPE svg PUBLIC "-//W3C//DTD SVG 1.1//EN" "http://www.w3.org/Graphics/SVG/1.1/DTD/svg11.dtd">
<!-- Created with Vectornator (http://vectornator.io/) -->
<svg height="100%" stroke-miterlimit="10" style="fill-rule:nonzero;clip-rule:evenodd;stroke-linecap:round;stroke-linejoin:round;" version="1.1" viewBox="0 0 400 400" width="100%" xml:space="preserve" xmlns="http://www.w3.org/2000/svg" xmlns:vectornator="http://vectornator.io" xmlns:xlink="http://www.w3.org/1999/xlink">
<defs/>
<g id="Layer-1" vectornator:layerName="Layer 1">
<path d="M369.9 194.823C366.992 193.037 364.206 191.031 361.55 188.854C356.165 184.439 351.29 179.319 347.067 173.68C342.962 168.199 339.374 162.162 336.971 155.643C334.589 149.183 333.627 142.206 333.444 135.308C333.086 121.834 335.63 107.947 341.294 95.8142C341.967 95.0365 342.201 93.9559 341.95 92.9603C341.32 89.7457 338.154 90.6357 335.961 90.9071C332.236 91.3692 328.475 91.5096 324.727 91.3794C317.48 91.125 310.249 89.8725 303.302 87.6942C296.96 85.7091 290.725 82.9488 285.233 79.0347C280.044 75.3367 275.634 70.4892 271.83 65.2834C266.735 58.3121 262.642 50.4933 259.726 42.2575C258.24 38.0609 257.064 33.7376 256.287 29.3333C256.019 27.8188 255.946 26.2225 254.521 25.3946C253.361 24.7249 251.992 24.9691 251.037 25.9L251.037 25.8992C241.263 36.1728 228.414 43.5279 215.092 47.2642C208.88 49.0051 202.444 49.9351 196.016 49.3624C189.049 48.7421 182.189 46.763 175.714 44.0359C169.337 41.3496 163.245 37.8729 157.674 33.6448C154.917 31.5525 152.287 29.2712 149.837 26.7909C149.103 26.0472 148.438 25.2065 147.367 25.0355C146.236 24.8483 145.041 25.4141 144.43 26.431C143.85 27.3874 143.845 28.6918 143.648 29.769C143.3 31.6665 142.88 33.5495 142.392 35.413C141.447 39.0292 140.255 42.5732 138.856 46.0219C136.079 52.869 132.496 59.3783 128.181 65.2826C124.518 70.2952 120.294 74.9742 115.354 78.6152C110.203 82.4119 104.338 85.1364 98.365 87.153C91.7523 89.3866 84.8641 90.7574 77.9346 91.2381C74.3584 91.4866 70.7652 91.4909 67.1907 91.2186C65.3961 91.0816 63.6056 90.874 61.8273 90.5898C60.4005 90.3617 59.0143 90.7234 58.3167 92.1852C57.236 93.316 57.3073 94.8042 57.9514 96.1376C58.7429 97.7764 59.4705 99.4492 60.1389 101.148C61.4392 104.451 62.5167 107.849 63.3909 111.303C65.1126 118.106 66.071 125.135 66.2282 132.172C66.3862 139.259 65.7923 146.493 63.8292 153.301C61.9683 159.753 58.7931 165.77 55.11 171.263C48.1165 181.694 38.8683 190.741 28.2022 196.899L27.9534 196.899C26.3938 196.899 25.1445 198.2 25.0408 199.783C25.0335 199.892 25.0319 200.003 25.036 200.115C25.0092 200.299 24.9979 200.476 25.0003 200.646C25.04 203.237 28.3245 204.216 30.115 205.313C33.026 207.094 35.8139 209.097 38.4713 211.272C43.8606 215.682 48.7404 220.797 52.9695 226.432C57.0788 231.907 60.6728 237.94 63.0823 244.459C65.4788 250.94 66.4461 257.945 66.6317 264.869C66.9865 278.157 64.5155 291.835 59.0224 303.845C57.9667 304.765 57.6678 306.314 58.2714 307.578C59.3538 310.761 63.2273 309.274 65.5217 309.035C69.2615 308.646 73.0305 308.573 76.7825 308.768C84.0053 309.144 91.1949 310.501 98.092 312.781C104.309 314.837 110.425 317.654 115.752 321.638C120.912 325.498 125.293 330.478 129.064 335.797C136.47 346.246 141.866 358.608 144.003 371.474C143.85 372.764 144.498 374.018 145.616 374.597C146.569 375.154 147.76 375.144 148.676 374.504C148.735 374.504 149.104 374.144 149.135 374.11L149.135 374.109C155.77 367.122 163.801 361.603 172.337 357.529C180.984 353.401 190.579 350.412 200.146 350.412L200.157 350.412L200.187 350.412C209.488 350.4 218.817 353.224 227.266 357.142C235.801 361.098 243.832 366.507 250.536 373.345C251.131 374.472 252.347 375.086 253.567 374.876C254.659 374.755 255.615 373.989 256.008 372.912C256.008 372.91 256.008 372.91 256.008 372.909C256.049 372.793 256.159 372.433 256.159 372.308L256.158 372.307C258.353 357.716 264.8 343.586 273.745 332.234C277.671 327.252 282.185 322.766 287.466 319.402C293.281 315.696 299.732 313.102 306.298 311.304C312.229 309.68 318.332 308.712 324.456 308.463C327.589 308.334 330.731 308.396 333.855 308.674C335.485 308.819 337.11 309.023 338.727 309.293C339.911 309.49 341.114 308.88 341.715 307.79C342.833 306.47 342.445 305.006 341.776 303.595C340.998 301.951 340.281 300.277 339.624 298.576C338.347 295.271 337.292 291.872 336.436 288.421C334.755 281.629 333.831 274.617 333.707 267.601C333.581 260.499 334.209 253.243 336.239 246.44C338.166 239.984 341.387 233.972 345.116 228.483C352.165 218.11 361.451 209.12 372.147 203.044C373.708 202.991 374.984 201.614 374.984 199.973C374.996 199.844 375 199.716 374.999 199.587C375.002 196.845 371.733 195.948 369.9 194.823ZM251.211 44.1882C251.211 44.1882 252.738 40.0435 254.03 43.7576C256.56 51.0404 259.924 58.0134 264.043 64.4411C268.582 71.5205 274.054 78.1412 280.656 83.1785C287.171 88.1349 294.749 91.5147 302.447 93.8427C309.707 96.038 317.23 97.5279 324.786 97.5279C327.746 97.5279 325.707 100.189 325.707 100.189L303.351 117.26C296.583 118.271 289.501 116.746 283.019 114.752C276.769 112.831 270.019 110.334 264.707 106.275C259.595 102.399 255.41 96.7315 251.824 91.353C247.908 85.481 244.239 78.8628 242.875 71.757C242.853 71.6345 242.831 71.5128 242.808 71.3911L251.211 44.1882ZM298.293 268.769C298.692 271.577 296.81 270.089 296.81 270.089L281.911 258.713C279.95 254.595 279.62 249.342 279.462 244.826C279.273 239.427 279.659 233.897 281.065 228.682C282.449 223.551 284.971 218.781 287.894 214.446C290.721 210.255 294.091 205.909 298.216 203.055L316.346 203.055C316.346 203.055 318.678 203.632 316.993 205.402C313.615 208.951 310.584 212.873 307.855 216.981C304.474 222.068 301.162 227.627 299.336 233.566C297.579 239.326 297.161 245.641 297.05 251.654C296.942 257.372 297.262 263.142 298.293 268.769ZM102.387 267.465C104.356 259.576 103.557 251.062 102.589 243.015C102.155 239.436 101.545 235.837 100.277 232.47C98.9014 228.82 97.0477 225.361 95.0667 222.04C91.6648 216.338 87.7119 210.859 83.1149 206.122C81.1121 204.019 84.4233 203.054 84.4233 203.054L100.904 203.054C100.905 203.054 100.905 203.054 100.906 203.055C104.716 205.046 107.888 209.116 110.477 212.553C113.716 216.852 116.551 221.625 118.362 226.783C120.106 231.752 120.742 237.128 120.811 242.401C120.878 247.578 120.605 253.265 118.831 258.156L104.628 269C104.628 269 101.418 271.347 102.387 267.465ZM101.858 132.486C101.858 129.658 104.893 131.153 104.893 131.153L117.975 141.143C119.702 145.47 120.296 150.144 120.494 154.812C120.726 160.331 120.357 165.996 118.93 171.331C117.553 176.476 115.03 181.259 112.107 185.604C109.308 189.762 105.99 194.019 101.941 196.898L84.813 196.898C84.813 196.898 80.9274 196.868 83.6115 194.049C86.8871 190.609 89.7503 186.735 92.3753 182.738C95.6549 177.744 98.8641 172.305 100.644 166.496C102.434 160.617 102.833 154.156 102.92 148.022C102.993 142.831 102.708 137.606 101.858 132.486ZM274.031 250.725C274.444 252.96 272.496 251.525 272.496 251.525L263.965 245.009C260.565 237.943 260.727 228.665 262.995 221.274C265.201 214.074 269.921 206.969 276.177 203.054L286.311 203.054C286.311 203.054 289.042 203.511 286.997 205.659C281.791 211.125 278.074 218.302 275.825 225.615C273.393 233.574 273.004 242.411 274.031 250.725ZM126.434 249.333C127.17 241.563 126.62 233.432 124.323 226.051C122.063 218.846 118.04 212.086 113.217 206.346C110.561 203.556 114.409 203.054 114.409 203.054L123.089 203.054C129.307 206.415 134.083 213.264 136.568 219.987C139.373 227.574 139.753 236.988 136.645 244.554L128.57 250.72C128.57 250.72 126.104 252.805 126.434 249.333ZM126.175 151.503C126.175 147.61 128.74 149.362 128.74 149.362L135.94 154.86C139.37 161.788 139.254 170.985 137.132 178.299C135.001 185.641 130.268 192.868 123.958 196.898L114.898 196.898C114.898 196.898 110.759 196.708 113.297 194.043C118.499 188.58 122.14 181.331 124.289 173.998C126.384 166.849 126.875 159.019 126.175 151.503ZM255.498 165.033C255.498 170.191 255.809 175.397 257.334 180.296C259.007 185.667 261.555 190.889 265.361 194.888C267.148 196.766 264.189 196.899 264.189 196.899L254.284 196.899C249.925 194.426 247.496 189.94 245.913 185.172C244.193 179.994 243.176 174.315 245.397 169.121L252.961 163.345C252.962 163.345 255.498 161.869 255.498 165.033ZM255.747 236.105C256.204 239.112 254.036 237.429 254.036 237.429L245.723 231.08C243.383 226.07 244.129 220.557 245.704 215.429C247.207 210.522 249.508 205.746 253.885 203.054L264.335 203.054C264.335 203.054 267.033 203.093 265.061 205.165C257.494 213.111 254.042 224.913 255.747 236.105ZM238.364 225.461L213.383 206.385C212.544 204.874 212.179 203.926 214.376 203.054L245.145 203.054C242.904 206.05 241.393 209.516 240.258 213.12C239.007 217.082 238.137 221.264 238.364 225.461ZM161.726 222.427C161.726 219.472 160.836 216.58 159.96 213.774C159.268 211.559 158.441 209.397 157.397 207.359C155.138 203.311 159.924 203.054 159.924 203.054L186.759 203.054C188.151 203.491 188.507 204.655 187.469 205.746L164.337 223.409C164.338 223.408 161.726 225.725 161.726 222.427ZM144.525 235.339C145.259 230.12 144.264 224.734 142.7 219.722C141.245 215.072 138.963 210.703 136.052 206.873C133.203 203.882 136.483 203.054 136.483 203.054L145.634 203.054C150.049 205.512 152.514 210.025 154.115 214.832C155.827 219.969 156.853 225.605 154.691 230.775L147.318 236.404C147.318 236.404 144.125 238.188 144.525 235.339ZM135.696 193.912C142.048 185.615 145.14 174.984 144.257 164.362C144.257 161.356 147.465 163.661 147.465 163.661L154.213 168.815C156.61 173.848 155.876 179.405 154.296 184.576C152.809 189.441 150.538 194.198 146.223 196.899L137.264 196.899C137.264 196.899 133.324 196.404 135.696 193.912ZM161.606 177.626C161.606 174.793 163.66 176.027 163.66 176.027L188.195 194.762L188.195 194.762C189.289 195.909 189.176 196.309 187.052 196.899L159.728 196.899C159.728 196.899 155.04 197.258 156.91 193.735C158.065 191.561 158.997 189.256 159.744 186.876C160.684 183.888 161.406 180.776 161.606 177.626ZM238.376 178.29C238.376 181.001 239.263 183.642 240.067 186.223C241.263 190.064 242.866 193.747 245.299 196.899L213.205 196.899C212.032 196.335 211.368 195.516 212.805 194.009L235.23 176.886C235.23 176.886 238.376 174.178 238.376 178.29ZM210.162 157.129L201.28 185.878C200.213 187 199.888 186.987 198.685 185.724L198.685 185.724L190.032 157.718C190.032 157.718 188.736 153.355 192.062 154.872C194.503 155.986 197.332 155.713 200.007 155.713C202.995 155.713 205.977 155.438 208.852 154.636C211.103 153.663 210.162 157.129 210.162 157.129ZM198.755 213.999L198.755 213.999C199.812 212.891 199.798 212.747 201.386 214.414L201.386 214.414L211.161 246.059C207.615 244.687 203.871 244.241 200.105 244.24L200.051 244.24C196.225 244.244 192.421 244.703 188.829 246.129L198.755 213.999ZM232.157 171.624L209.218 189.138L209.218 189.138C207.416 189.872 207.113 188.708 207.113 186.944L207.113 186.944L215.951 158.332C215.951 158.332 216.035 155.663 218.551 158.306C220.517 160.37 222.502 162.433 224.747 164.143C227.049 165.897 229.498 167.461 232.13 168.579C234.837 169.255 232.157 171.624 232.157 171.624ZM216.769 135.744L213.907 145.006C210.109 148.682 205.002 149.559 200.008 149.559C195.012 149.559 189.903 148.682 186.106 145.005L183.467 136.46C183.467 136.46 182.193 132.017 185.696 133.749C194.895 137.508 205.173 137.494 214.37 133.726C217.16 132.633 216.769 135.744 216.769 135.744ZM181.391 158.363C182.975 155.202 184.209 158.808 184.209 158.808L193.133 187.696C193.133 189.797 192.265 189.25 190.942 189.25L190.942 189.25L167.418 171.288C167.418 171.288 165.297 169.563 167.874 168.585C170.685 167.519 173.214 165.74 175.619 163.874C177.722 162.241 179.698 160.437 181.391 158.363ZM168.61 227.753L191.25 210.466C192.692 210.466 192.91 210.924 192.91 212.977L192.91 212.977L184.159 241.304C184.159 241.304 183.242 244.265 181.488 241.648C179.892 239.268 177.54 237.539 175.298 235.836C173.069 234.142 170.703 232.626 168.169 231.519C165.369 230.879 168.61 227.753 168.61 227.753ZM183.238 264.235L186.077 255.04C189.879 251.3 195.021 250.399 200.055 250.395L200.064 250.395L200.106 250.395C205.044 250.394 210.102 251.256 213.881 254.859L216.854 264.484C216.854 264.484 217.845 267.731 215.186 266.528C210.417 264.447 205.263 263.321 200.098 263.32L200.068 263.32C194.991 263.328 189.918 264.419 185.218 266.442C181.901 267.833 183.238 264.235 183.238 264.235ZM216.757 244.228L207.256 213.472L207.256 213.472C207.256 211.722 207.828 211.247 209.783 211.247L209.783 211.247L234.84 230.379C231.031 231.479 227.587 233.603 224.43 236.055C221.473 238.354 218.785 240.99 216.757 244.228ZM249.76 158.182L242.08 164.046C236.766 164.737 231.969 162.105 227.821 158.879C223.923 155.845 220.471 152.058 219.48 146.905L222.86 135.962C222.86 135.962 223.703 133.351 225.043 136.888C228.934 147.152 239.198 153.125 249.626 155.485C252.126 155.485 249.76 158.182 249.76 158.182ZM223.697 113.314L220.817 122.635C215.382 127.887 207.285 130.483 200.006 130.479C192.725 130.483 184.629 127.886 179.194 122.634L176.498 113.909C176.498 113.909 175.844 109.965 179.033 111.517C185.547 114.688 192.888 116.319 200.007 116.324C207.481 116.313 215.092 114.266 221.967 111.07C224.974 109.964 223.697 113.314 223.697 113.314ZM151.287 155.223C160.854 152.622 169.193 146.286 174.552 137.572C175.747 134.378 177.727 137.828 177.727 137.828L180.532 146.905C179.546 152.06 176.09 155.848 172.191 158.88C168.043 162.106 163.247 164.736 157.932 164.045L150.338 158.247C150.338 158.247 147.03 155.816 151.287 155.223ZM161.497 143.456C155.515 148.141 147.273 151.171 139.757 150.167L132.479 144.608C132.479 144.608 129.449 141.547 132.499 141.547C140.156 141.547 147.464 136.771 153.571 132.005C159.389 127.466 164.243 121.332 167.938 114.727C168.909 112.219 170.749 115.237 170.749 115.237L173.621 124.536C172.183 131.998 167.229 138.967 161.497 143.456ZM132.266 255.508L139.647 249.871C147.059 248.785 155.254 251.748 161.215 256.279C167.086 260.739 172.127 267.748 173.664 275.281L170.93 284.131C170.93 284.131 169.301 289.374 168.092 285.393C165.823 277.921 159.327 272.324 153.312 267.747C147.328 263.209 140.09 260.168 132.812 258.528C129.474 257.961 132.266 255.508 132.266 255.508ZM174.746 262.619C169.217 253.52 160.495 247.042 150.545 244.582C147.494 243.727 150.278 241.753 150.278 241.753L157.855 235.968C163.049 235.244 167.765 237.705 171.863 240.823C175.879 243.871 179.51 247.694 180.559 252.958L177.621 262.472C177.621 262.472 176.04 265.371 174.746 262.619ZM176.135 287.22L179.152 277.457C184.561 272.107 192.761 269.479 200.074 269.473L200.093 269.473L200.097 269.473C207.336 269.469 215.323 272.034 220.776 277.184L223.829 287.064C223.829 287.064 225.266 291.017 221.843 288.768C215.032 285.64 207.512 283.635 200.122 283.63L200.086 283.63C192.417 283.648 184.594 285.811 177.581 289.164C174.476 290.504 176.135 287.22 176.135 287.22ZM225.033 263.17C224.487 264.107 222.507 262.846 222.507 262.846L219.51 253.139C220.467 247.933 223.935 244.106 227.863 241.046C231.976 237.84 236.731 235.213 242.006 235.85L250.382 242.246C250.382 242.246 252.323 244.442 249.708 244.442C239.45 246.964 230.527 253.742 225.033 263.17ZM238.571 256.457C244.525 251.787 252.666 248.789 260.151 249.706L268.15 255.814C268.15 255.814 270.782 257.652 268.023 258.234C260.38 259.845 252.729 263.037 246.507 267.902C240.547 272.562 235.586 278.907 231.865 285.714C230.346 289.17 229.526 285.559 229.526 285.559L226.435 275.556C227.801 268.032 232.814 260.974 238.571 256.457ZM286.312 196.899L276.78 196.899C270.525 193.41 265.744 186.485 263.317 179.628C260.652 172.097 260.329 162.755 263.482 155.313L271.287 149.353C271.287 149.353 274.005 148.842 273.572 151.291C272.249 158.784 273.485 166.793 275.717 173.985C278.107 181.632 282.241 189.014 287.687 194.735C289.702 196.851 286.312 196.899 286.312 196.899ZM264.209 134.262C259.281 132.674 254.398 130.469 250.209 127.274C246.191 124.225 242.806 120.242 239.918 116.035C237.161 112.018 234.307 107.362 233.205 102.483L238.917 83.9894C238.917 83.9894 239.847 81.2844 240.713 83.7069C243.256 89.2488 246.505 94.4341 250.125 99.2637C253.571 103.864 257.429 108.589 262.099 111.863C266.713 115.098 272.01 117.38 277.235 119.272C281.801 120.927 286.496 122.427 291.302 123.03C294.883 123.479 292.287 125.71 292.287 125.71L278.129 136.52C273.537 137.027 268.563 135.664 264.209 134.262ZM232.213 114.969C235.365 121.932 240.87 127.758 246.768 132.256C252.845 136.875 260.181 139.909 267.558 141.556C270.39 141.556 267.951 144.291 267.951 144.291L260.255 150.167C252.873 151.153 244.789 148.238 238.854 143.715C232.956 139.227 227.859 132.133 226.391 124.533L229.267 115.226C229.267 115.226 230.737 111.707 232.213 114.969ZM232.488 84.8573L227.629 100.584C224.187 103.69 219.565 105.633 215.323 107.165C210.423 108.935 205.211 110.173 200.008 110.168C195.05 110.176 190.084 109.04 185.394 107.414C180.916 105.862 176.004 103.852 172.384 100.582L167.328 84.2166C167.328 84.2166 166.762 80.2148 169.485 81.578C173.66 83.6669 177.949 85.5269 182.366 86.9505C188.012 88.7705 194.064 90.3762 200.007 90.383C205.678 90.3745 211.434 88.8948 216.841 87.2075C221.234 85.8358 225.519 84.037 229.694 82.0213C233.861 80.0106 232.488 84.8573 232.488 84.8573ZM161.551 85.4632L166.809 102.485C165.759 107.122 163.104 111.544 160.526 115.399C157.547 119.854 154.021 124.068 149.805 127.273C145.766 130.357 141.073 132.514 136.329 134.088C131.831 135.581 126.657 137.042 121.894 136.528L108.93 126.628C108.93 126.628 105.813 123.71 109.441 122.892C113.986 121.868 118.548 120.813 122.927 119.218C128.386 117.229 134.036 114.835 138.745 111.257C143.282 107.793 147.076 103.109 150.481 98.4682C153.522 94.3235 156.301 89.9184 158.568 85.2479C160.12 82.1643 161.551 85.4632 161.551 85.4632ZM107.867 274.138L121.753 263.534C126.241 262.935 131.195 264.296 135.461 265.633C140.417 267.182 145.319 269.353 149.56 272.496C153.605 275.496 157.016 279.431 159.933 283.609C162.776 287.68 165.651 292.368 166.859 297.311L161.645 314.188C161.645 314.188 160.217 317.686 158.56 314.502C156.055 309.688 153.218 305.047 149.988 300.743C146.536 296.148 142.673 291.43 138.001 288.16C133.39 284.931 128.096 282.657 122.876 280.771C118.107 279.048 113.177 277.672 108.172 276.93C104.714 276.93 107.867 274.138 107.867 274.138ZM167.185 316.196L172.333 299.53C175.748 296.321 180.506 294.352 184.778 292.805C189.677 291.031 194.887 289.787 200.09 289.786L200.107 289.786L200.122 289.786C205.074 289.778 210.037 290.91 214.724 292.531C219.162 294.065 223.949 296.044 227.58 299.213L233.075 317.002C233.075 317.002 234.252 320.353 231.247 318.674C226.971 316.284 222.408 314.479 217.777 312.991C212.129 311.174 206.075 309.574 200.134 309.57L200.111 309.57C194.44 309.585 188.684 311.07 183.28 312.763C178.185 314.358 173.162 316.378 168.465 319.018C165.491 320.662 167.185 316.196 167.185 316.196ZM238.638 315.061L233.254 297.626C234.197 293.064 236.831 288.677 239.322 284.884C242.273 280.393 245.777 276.148 249.957 272.876C253.967 269.738 258.637 267.539 263.374 265.924C267.941 264.367 273.148 262.896 277.997 263.332L292.179 274.161C292.179 274.161 294.517 276.117 291.709 276.795C286.693 278.007 281.6 279.011 276.756 280.807C271.354 282.81 265.71 285.206 261.093 288.837C256.576 292.389 252.781 297.09 249.376 301.782C246.337 305.97 243.563 310.422 241.321 315.143C239.527 318.918 238.638 315.061 238.638 315.061ZM316.493 196.899L298.936 196.899C295.091 194.739 291.922 190.701 289.287 187.145C286.089 182.829 283.287 178.036 281.542 172.861C279.866 167.885 279.274 162.512 279.24 157.254C279.208 152.144 279.494 146.5 281.311 141.698L295.667 130.736C295.667 130.736 298.106 129.325 297.658 132.774C296.616 140.808 296.514 149.091 297.472 157.088C297.902 160.653 298.509 164.237 299.77 167.592C301.141 171.244 302.992 174.704 304.971 178.028C308.516 183.985 312.762 189.585 317.513 194.573C320.003 197.188 316.493 196.899 316.493 196.899ZM158.938 41.9367C164.427 44.9412 169.759 48.2946 175.553 50.5664C183.34 53.6186 191.659 55.6905 200.008 55.699C208.355 55.6914 216.675 53.6186 224.462 50.5664C231.262 47.9006 237.542 43.9984 243.771 40.0792C246.926 38.095 245.557 42.5519 245.557 42.5519L237.23 69.509C232.263 74.4373 225.672 77.5405 219.301 79.9009C213.173 82.1719 206.309 84.3195 199.75 84.2268C193.375 84.1375 186.804 82.1447 180.83 79.9443C174.515 77.6179 168.005 74.5556 163.032 69.7404C162.947 69.657 162.862 69.5753 162.778 69.4919L155.448 45.7632C155.448 45.7632 153.721 39.0803 158.938 41.9367ZM78.4239 97.3705C85.1987 97.3705 91.8981 95.6228 98.3869 93.5908C104.275 91.7427 110.025 89.2734 115.312 85.966C120.231 82.89 124.58 78.9751 128.44 74.5454C135.335 66.6312 141.008 57.3446 144.699 47.2982C146.982 41.0824 149.903 47.7585 149.903 47.7585L157.201 71.3809C155.953 78.3948 152.404 84.9211 148.598 90.7352C144.927 96.3443 140.604 102.251 135.307 106.275C130.098 110.255 123.5 112.716 117.381 114.632C110.788 116.698 103.559 118.292 96.6628 117.261L78.398 103.314C78.3964 103.313 72.4091 97.3705 78.4239 97.3705ZM44.0672 192.868C47.897 189.617 51.3297 185.915 54.4603 182.114C63.0523 171.663 69.5394 159.428 71.3818 145.63C72.9317 134.021 71.9424 121.953 69.264 110.495C67.2815 102.014 73.2541 106.995 73.2541 106.995L92.6176 121.781C93.0348 123.163 93.7842 124.458 94.2485 125.836C94.8399 127.594 95.3017 129.401 95.672 131.225C96.4254 134.928 96.8159 138.711 96.9812 142.491C97.2891 149.502 97.0898 156.979 95.3001 163.784C93.6651 170.005 89.9132 175.874 86.3411 181.04C82.3063 186.877 77.5619 192.619 71.7043 196.503C71.5009 196.638 71.2943 196.77 71.0869 196.9L45.5977 196.9C45.5977 196.899 38.7119 197.413 44.0672 192.868ZM69.9737 289.672C73.1383 278.393 73.3449 266.172 71.6362 254.613C69.6334 241.065 63.092 229.06 54.5745 218.835C51.4796 215.125 48.0388 211.586 44.3241 208.343C39.0052 204.644 45.3052 203.054 45.3052 203.054L69.5929 203.054C72.2811 204.741 74.787 206.443 77.1268 208.66C79.7397 211.133 82.1143 213.879 84.3148 216.758C88.5399 222.285 92.5924 228.501 94.9874 235.17C96.0203 238.045 96.4724 241.157 96.8224 244.193C97.2567 247.971 97.4357 251.785 97.3993 255.59C97.3304 262.848 96.6393 270.561 93.8037 277.266L74.0822 292.325C74.0821 292.325 68.0139 296.658 69.9737 289.672ZM145.221 353.719C142.835 347.185 139.614 340.993 135.865 335.216C131.367 328.282 125.963 321.805 119.47 316.863C112.846 311.836 105.129 308.429 97.2948 306.108C91.3286 304.341 85.2052 302.75 79.0056 302.75C72.1166 302.75 77.2864 297.489 77.2864 297.489L96.4757 282.836C103.18 281.745 110.25 283.235 116.691 285.173C123.072 287.092 129.976 289.615 135.396 293.749C140.512 297.619 144.703 303.282 148.294 308.657C152.23 314.547 155.922 321.192 157.278 328.328L149.62 353.116C149.619 353.116 147.422 359.745 145.221 353.719ZM241.018 357.836C235.702 354.702 230.343 351.608 224.635 349.374C216.851 346.329 208.535 344.263 200.191 344.256L200.143 344.256C191.796 344.273 183.478 346.354 175.693 349.414C169.691 351.774 163.881 354.743 158.52 358.44C153.281 362.053 155.131 355.214 155.131 355.214L162.709 330.683C167.58 325.727 174.125 322.603 180.431 320.221C186.607 317.889 193.496 315.727 200.116 315.727L200.134 315.727C206.44 315.714 212.996 317.71 218.908 319.848C225.383 322.19 232.081 325.292 237.163 330.233L244.894 355.262C244.895 355.262 246.608 361.129 241.018 357.836ZM322.096 302.434C315.198 302.434 308.375 304.171 301.765 306.245C295.748 308.138 289.87 310.679 284.489 314.101C279.589 317.217 275.263 321.181 271.429 325.639C264.619 333.555 258.849 342.743 255.378 352.812C253.2 359.129 250.328 352.9 250.328 352.9L242.883 328.8C244.063 321.69 247.679 315.046 251.519 309.167C255.184 303.554 259.504 297.641 264.797 293.613C269.893 289.707 276.328 287.281 282.309 285.366C288.953 283.238 296.205 281.608 303.173 282.556L323.524 298.096C323.523 298.096 327.334 302.434 322.096 302.434ZM357.495 205.927C353.239 209.751 349.095 213.685 345.535 217.999C336.923 228.452 330.422 240.692 328.572 254.503C326.987 266.347 327.959 278.687 330.843 290.327C332.754 298.043 326.213 292.542 326.213 292.542L307.227 278.045C307.197 277.968 307.178 277.888 307.142 277.814L307.142 277.813C303.966 271.331 303.146 263.576 302.932 256.391C302.729 249.549 302.885 242.024 304.914 235.453C306.833 229.145 310.663 223.206 314.416 217.954C318.473 212.279 323.256 206.647 329.164 203.055L356.347 203.055C356.347 203.054 361.252 202.55 357.495 205.927ZM357.735 196.899L330.184 196.899C324.172 193.68 319.301 188.132 315.19 182.627C311.14 177.204 307.192 171.114 304.951 164.591C303.954 161.688 303.526 158.554 303.192 155.502C302.779 151.723 302.616 147.909 302.672 144.105C302.777 136.875 303.5 129.181 306.407 122.536L328.763 105.464C328.763 105.464 332.003 103.499 330.795 107.746C327.359 119.82 326.61 132.901 328.406 145.317C330.376 158.932 336.91 170.995 345.456 181.275C349.347 185.946 353.785 190.349 358.628 194.232C361.345 196.231 357.735 196.899 357.735 196.899Z" fill="#c8c8c8" fill-rule="nonzero" opacity="1" stroke="none"/>
</g>
</svg>
