<?xml version="1.0" encoding="UTF-8" standalone="no"?>
<!DOCTYPE svg PUBLIC "-//W3C//DTD SVG 1.1//EN" "http://www.w3.org/Graphics/SVG/1.1/DTD/svg11.dtd">
<!-- Created with Vectornator (http://vectornator.io/) -->
<svg height="100%" stroke-miterlimit="10" style="fill-rule:nonzero;clip-rule:evenodd;stroke-linecap:round;stroke-linejoin:round;" version="1.1" viewBox="0 0 841.995 595.35" width="100%" xml:space="preserve" xmlns="http://www.w3.org/2000/svg" xmlns:vectornator="http://vectornator.io" xmlns:xlink="http://www.w3.org/1999/xlink">
<defs/>
<g id="Layer-2" vectornator:layerName="Layer 2">
<g fill="#ffffff" opacity="1" stroke="#000080" stroke-linecap="round" stroke-linejoin="round" stroke-width="3">
<path d="M344.438 62.4139L340.284 42.0894L343.059 41.5223L346.702 59.3497L355.887 57.4727L356.397 59.9699L344.438 62.4139Z"/>
<path d="M355.395 39.0701L358.192 38.6273L360.412 52.6552C360.61 53.9047 361.169 54.8699 362.089 55.551C363.01 56.232 364.122 56.4692 365.428 56.2626C366.808 56.0442 367.832 55.4806 368.5 54.5719C369.169 53.6632 369.397 52.5376 369.184 51.1949L366.975 37.2369L369.772 36.7941L372.028 51.0458C372.356 53.1158 371.966 54.8334 370.858 56.1986C369.751 57.5639 368.083 58.4229 365.854 58.7757C363.56 59.1388 361.704 58.8497 360.283 57.9085C358.863 56.9672 357.985 55.4337 357.648 53.3078L355.395 39.0701Z"/>
<path d="M387.749 55.5658L381.695 47.8689L377.9 56.6753L375.057 56.9955L379.931 45.6167L373.226 36.3117L376 36.0135L381.282 43.3128L385.258 34.9705L388.087 34.6519L382.808 45.3496L390.732 55.2297L387.749 55.5658Z"/>
<path d="M403.446 36.1034L403.739 41.8591L410.584 41.5104L410.706 43.9145L403.861 44.2632L404.242 51.7301L413.632 51.2517L413.762 53.7973L401.543 54.4197L400.488 33.7019L412.862 33.0716L412.992 35.6171L403.446 36.1034Z"/>
<path d="M424.205 35.4228L424.43 53.6173L421.598 53.6522L421.374 35.4578L414.775 35.5393L414.744 32.9907L431.069 32.7891L431.101 35.3377L424.205 35.4228Z"/>
<path d="M449.615 35.9525L448.749 54.1276L445.92 53.9928L446.786 35.8176L440.195 35.5035L440.316 32.9576L456.624 33.7348L456.503 36.2807L449.615 35.9525Z"/>
<path d="M462.212 36.7728L461.709 42.5139L468.536 43.1127L468.326 45.5107L461.498 44.9119L460.845 52.3599L470.212 53.1814L469.989 55.7205L457.801 54.6516L459.614 33.9863L471.956 35.0688L471.734 37.6079L462.212 36.7728Z"/>
<path d="M484.493 57.5332L480.142 47.9908C479.515 47.9098 478.528 47.7349 477.183 47.466L476.024 56.4399L473.216 56.0773L475.872 35.5034C475.975 35.5167 476.707 35.5755 478.069 35.68C479.431 35.7844 480.421 35.8765 481.039 35.9563C485.982 36.5945 488.2 38.8797 487.692 42.8119C487.526 44.1039 486.977 45.2158 486.048 46.1476C485.119 47.0795 484.09 47.601 482.962 47.7124L487.708 57.9483L484.493 57.5332ZM478.354 38.3938L477.491 45.0786C478.153 45.2592 478.802 45.3907 479.439 45.4729C481.124 45.6904 482.386 45.5773 483.224 45.1334C484.061 44.6895 484.57 43.77 484.75 42.375C484.899 41.2234 484.594 40.3417 483.836 39.7297C483.077 39.1178 481.808 38.697 480.029 38.4673C479.748 38.4311 479.19 38.4066 478.354 38.3938Z"/>
<path d="M500.93 60.2515L497.002 50.5275C496.379 50.4191 495.401 50.2011 494.069 49.8734L492.518 58.7879L489.728 58.3024L493.284 37.8648C493.386 37.8826 494.115 37.9736 495.471 38.1376C496.827 38.3017 497.812 38.4371 498.426 38.5439C503.337 39.3984 505.452 41.7786 504.773 45.6848C504.549 46.9682 503.953 48.055 502.984 48.9452C502.014 49.8353 500.964 50.3113 499.832 50.3731L504.125 60.8074L500.93 60.2515ZM495.637 40.8614L494.482 47.5018C495.135 47.7114 495.778 47.8711 496.41 47.9812C498.084 48.2724 499.35 48.2147 500.206 47.808C501.063 47.4013 501.611 46.505 501.853 45.1193C502.052 43.9753 501.786 43.081 501.055 42.4364C500.324 41.7918 499.074 41.3157 497.307 41.0083C497.028 40.9597 496.472 40.9108 495.637 40.8614Z"/>
<path d="M517.483 63.7678L517.033 59.1865L509.499 57.5166L507.059 61.4575L503.962 60.7712L516.738 42.0646L517.471 42.227L520.552 64.448L517.483 63.7678ZM515.796 47.4254L510.682 55.6468L516.696 56.9796L515.796 47.4254Z"/>
</g>
<path d="M307.436 216.326L398.105 216.326L398.105 241.613L307.436 241.613L307.436 216.326Z" fill="#000080" fill-opacity="0" fill-rule="nonzero" opacity="1" stroke="#000080" stroke-linecap="round" stroke-linejoin="round" stroke-opacity="0" stroke-width="3"/>
<path d="M447.115 198.836L447.23 198.836L447.23 198.836L447.115 198.836Z" fill="#000080" fill-opacity="0" fill-rule="nonzero" opacity="1" stroke="#000080" stroke-linecap="round" stroke-linejoin="round" stroke-opacity="0" stroke-width="3"/>
<path d="M505.698 203.493L505.757 203.493L505.757 203.493L505.698 203.493Z" fill="#ffffff" fill-rule="nonzero" opacity="1" stroke="#ffffff" stroke-linecap="round" stroke-linejoin="round" stroke-width="3"/>
<path d="M377.986 363.71C377.986 355.753 400.656 349.302 428.621 349.302C456.586 349.302 479.257 355.753 479.257 363.71C479.257 371.667 456.586 378.118 428.621 378.118C400.656 378.118 377.986 371.667 377.986 363.71Z" fill="#000080" fill-opacity="0" fill-rule="nonzero" opacity="1" stroke="#000080" stroke-linecap="round" stroke-linejoin="round" stroke-opacity="0" stroke-width="3"/>
<g opacity="1">
<path d="M297.607 185.636C295.076 189.089 292.685 192.351 295.492 198.022C296.759 200.581 300.127 201.118 302.729 201.118C308.072 201.118 314.263 198.999 318.84 196.072C318.075 195.093 317.278 193.905 317.278 192.402C317.278 190.672 318.334 189.358 319.183 188.302C319.592 187.792 320.056 187.215 320.175 186.837C320.309 186.414 320.266 185.669 320.226 184.948C320.149 183.604 320.054 181.932 321.01 180.58C321.688 179.621 322.672 179.128 323.639 178.801C322.717 176.664 321.493 174.464 320.009 172.361C316.2 166.964 311.578 163.477 308.235 163.477C307.508 163.477 306.858 163.633 306.247 163.953C300.657 166.885 300.776 170.961 300.902 175.277C300.958 177.213 301.011 179.041 300.492 180.686C299.93 182.466 298.802 184.006 297.607 185.636Z" fill="#000080" fill-rule="nonzero" opacity="1" stroke="none"/>
<path d="M345.967 233.592C346.703 233.712 347.41 233.773 348.067 233.773C352.713 233.773 354.678 230.807 356.758 227.666C357.818 226.066 358.82 224.554 360.179 223.538C361.65 222.437 363.442 221.875 365.339 221.279C369.359 220.016 373.156 218.823 374.123 212.537C374.351 211.056 373.813 209.517 372.523 207.963C370.442 205.456 366.612 203.215 362.31 201.741C361.834 201.599 361.359 201.447 360.885 201.286C358.423 200.557 355.858 200.086 353.412 199.963C353.487 201.288 353.552 202.907 352.622 204.224C351.658 205.586 350.075 206.01 348.803 206.35C348.131 206.529 347.436 206.715 347.098 206.968C346.771 207.214 346.391 207.829 346.023 208.425C345.314 209.574 344.43 211.004 342.854 211.531C342.468 211.66 342.055 211.725 341.626 211.725C341.157 211.725 340.7 211.645 340.257 211.527C339.392 216.023 339.356 221.252 340.419 225.811C341.042 228.481 342.591 233.042 345.967 233.592Z" fill="#000080" fill-rule="nonzero" opacity="1" stroke="none"/>
<path d="M325.423 149.814C323.121 149.814 321.092 150.799 319.036 152.915C316.618 155.403 317.97 160.031 318.991 162.568C320.956 167.449 324.536 172.177 328.272 175.355C328.88 174.488 329.652 173.65 330.778 173.273C331.165 173.144 331.578 173.079 332.006 173.079C333.085 173.079 334.109 173.491 335.013 173.855C335.678 174.122 336.365 174.398 336.817 174.398C337.269 174.398 337.956 174.122 338.621 173.855C339.524 173.491 340.549 173.079 341.627 173.079C342.056 173.079 342.469 173.144 342.855 173.273C343.805 173.591 344.502 174.237 345.062 174.951C348.63 171.783 352 167.248 353.884 162.568C354.904 160.031 356.256 155.403 353.839 152.915C351.77 150.786 349.735 149.795 347.432 149.795C345.483 149.795 343.572 150.5 341.724 151.181C339.953 151.835 338.28 152.452 336.6 152.452C334.781 152.452 333.01 151.823 331.135 151.158C329.273 150.497 327.348 149.814 325.423 149.814Z" fill="#000080" fill-rule="nonzero" opacity="1" stroke="none"/>
<path d="M378.13 196.335C380.978 190.581 378.554 187.355 375.988 183.94C374.837 182.408 373.749 180.961 373.23 179.317C372.668 177.536 372.702 175.608 372.737 173.567C372.813 169.242 372.884 165.156 367.375 162.267C366.764 161.947 366.114 161.791 365.386 161.791C362.044 161.791 357.423 165.277 353.614 170.673C351.78 173.272 350.342 176.02 349.384 178.614C350.529 178.941 351.8 179.419 352.621 180.58C353.577 181.932 353.482 183.605 353.406 184.949C353.365 185.669 353.322 186.414 353.456 186.837C353.575 187.216 354.039 187.793 354.448 188.302C355.296 189.358 356.352 190.672 356.352 192.402C356.352 193.349 356.035 194.171 355.609 194.894C357.398 195.957 359.395 196.891 361.468 197.633C362.238 197.853 362.999 198.096 363.747 198.361C366.156 199.037 368.602 199.431 370.893 199.431C373.495 199.431 376.863 198.894 378.13 196.335Z" fill="#000080" fill-rule="nonzero" opacity="1" stroke="none"/>
<path d="M301.352 213.775C302.333 220.153 306.136 221.296 310.162 222.506C311.969 223.049 313.675 223.563 315.034 224.579C316.506 225.679 317.579 227.259 318.716 228.932C320.839 232.057 322.845 235.009 327.422 235.009C328.075 235.009 328.776 234.949 329.507 234.829C332.884 234.279 334.433 229.718 335.056 227.048C336.26 221.886 336.053 215.865 334.831 211.022C333.972 211.366 333.014 211.725 332.006 211.725C331.577 211.725 331.164 211.66 330.778 211.531C329.202 211.004 328.319 209.574 327.609 208.425C327.241 207.829 326.861 207.213 326.533 206.968C326.196 206.715 325.501 206.529 324.829 206.349C323.557 206.009 321.974 205.586 321.01 204.224C320.388 203.344 320.212 202.33 320.185 201.358C313.394 202.156 306.131 205.368 302.951 209.201C301.662 210.755 301.124 212.294 301.352 213.775Z" fill="#000080" fill-rule="nonzero" opacity="1" stroke="none"/>
<path d="M339.923 207.519C340.562 207.777 341.222 208.042 341.626 208.042C341.678 208.042 341.721 208.037 341.749 208.028C342.101 207.91 342.622 207.066 343.003 206.449C343.524 205.605 344.116 204.647 344.993 203.99C345.879 203.326 346.955 203.038 347.903 202.784C348.585 202.602 349.518 202.353 349.728 202.056C349.93 201.771 349.874 200.788 349.833 200.07C349.776 199.059 349.711 197.912 350.052 196.829C350.382 195.782 351.077 194.917 351.69 194.154C352.173 193.554 352.774 192.806 352.774 192.402C352.774 191.998 352.173 191.25 351.69 190.649C351.077 189.886 350.382 189.021 350.052 187.974C349.711 186.892 349.776 185.745 349.833 184.733C349.874 184.016 349.93 183.033 349.728 182.747C349.518 182.451 348.585 182.201 347.904 182.019C346.955 181.765 345.88 181.478 344.993 180.813C344.116 180.156 343.524 179.199 343.003 178.354C342.622 177.737 342.101 176.893 341.749 176.776C341.721 176.766 341.679 176.761 341.626 176.761C341.223 176.761 340.562 177.027 339.923 177.284C338.995 177.658 337.943 178.081 336.816 178.081C335.69 178.081 334.638 177.657 333.71 177.284C333.071 177.027 332.41 176.761 332.006 176.761C331.954 176.761 331.911 176.766 331.883 176.776C331.532 176.893 331.01 177.737 330.63 178.354C330.108 179.199 329.516 180.156 328.639 180.813C327.752 181.477 326.677 181.765 325.728 182.018C325.047 182.2 324.113 182.45 323.903 182.747C323.701 183.032 323.757 184.015 323.798 184.733C323.855 185.744 323.92 186.891 323.579 187.974C323.248 189.021 322.553 189.886 321.94 190.648C321.458 191.249 320.857 191.997 320.857 192.401C320.857 192.806 321.458 193.553 321.94 194.154C322.553 194.917 323.248 195.782 323.579 196.829C323.92 197.911 323.855 199.058 323.798 200.069C323.757 200.787 323.701 201.77 323.904 202.056C324.113 202.352 325.047 202.602 325.728 202.784C326.677 203.038 327.752 203.325 328.639 203.989C329.516 204.646 330.108 205.603 330.629 206.448C331.01 207.065 331.532 207.909 331.883 208.027C331.911 208.037 331.954 208.042 332.006 208.042C332.41 208.042 333.071 207.776 333.71 207.518C334.638 207.145 335.69 206.722 336.816 206.722C337.943 206.722 338.995 207.146 339.923 207.519Z" fill="#000080" fill-rule="nonzero" opacity="1" stroke="none"/>
</g>
<g opacity="1">
<path d="M491.549 184.496C489.018 187.95 486.627 191.212 489.434 196.882C490.701 199.442 494.069 199.979 496.67 199.979C502.014 199.979 508.205 197.859 512.782 194.932C512.017 193.954 511.22 192.765 511.22 191.262C511.22 189.532 512.276 188.218 513.125 187.162C513.534 186.653 513.997 186.076 514.117 185.697C514.251 185.274 514.208 184.529 514.167 183.809C514.091 182.465 513.996 180.792 514.952 179.44C515.63 178.481 516.614 177.989 517.581 177.662C516.659 175.524 515.434 173.324 513.95 171.221C510.141 165.825 505.52 162.338 502.177 162.338C501.45 162.338 500.799 162.494 500.188 162.814C494.599 165.746 494.717 169.822 494.843 174.137C494.899 176.073 494.953 177.902 494.433 179.546C493.872 181.327 492.743 182.866 491.549 184.496Z" fill="#000080" fill-rule="nonzero" opacity="1" stroke="none"/>
<path d="M539.909 232.453C540.645 232.573 541.351 232.633 542.009 232.633C546.654 232.633 548.619 229.667 550.699 226.527C551.76 224.926 552.761 223.414 554.12 222.398C555.591 221.298 557.384 220.735 559.281 220.139C563.301 218.876 567.097 217.684 568.064 211.398C568.293 209.917 567.754 208.378 566.465 206.824C564.384 204.316 560.553 202.075 556.252 200.601C555.776 200.46 555.301 200.308 554.827 200.146C552.365 199.417 549.799 198.946 547.354 198.824C547.428 200.149 547.494 201.768 546.563 203.084C545.599 204.447 544.017 204.87 542.745 205.21C542.073 205.39 541.378 205.576 541.04 205.829C540.713 206.074 540.332 206.69 539.965 207.285C539.255 208.434 538.372 209.865 536.796 210.391C536.41 210.521 535.997 210.586 535.568 210.586C535.099 210.586 534.641 210.506 534.198 210.387C533.334 214.884 533.297 220.113 534.361 224.671C534.983 227.341 536.532 231.902 539.909 232.453Z" fill="#000080" fill-rule="nonzero" opacity="1" stroke="none"/>
<path d="M519.535 148.663C517.234 148.663 515.204 149.648 513.149 151.764C510.731 154.253 512.082 158.88 513.103 161.417C515.068 166.299 518.648 171.026 522.384 174.205C522.992 173.337 523.764 172.499 524.891 172.122C525.277 171.993 525.69 171.928 526.119 171.928C527.197 171.928 528.222 172.34 529.126 172.704C529.79 172.971 530.477 173.248 530.929 173.248C531.382 173.248 532.069 172.971 532.733 172.704C533.637 172.34 534.661 171.928 535.74 171.928C536.168 171.928 536.582 171.994 536.968 172.123C537.917 172.44 538.614 173.086 539.174 173.8C542.742 170.633 546.112 166.098 547.996 161.417C549.017 158.88 550.368 154.253 547.951 151.764C545.883 149.636 543.847 148.644 541.545 148.644C539.595 148.644 537.684 149.349 535.837 150.031C534.065 150.684 532.392 151.301 530.712 151.301C528.893 151.301 527.122 150.673 525.247 150.007C523.385 149.346 521.46 148.663 519.535 148.663Z" fill="#000080" fill-rule="nonzero" opacity="1" stroke="none"/>
<path d="M572.071 195.195C574.92 189.441 572.496 186.216 569.929 182.801C568.778 181.269 567.691 179.822 567.172 178.177C566.61 176.397 566.643 174.469 566.679 172.427C566.755 168.102 566.826 164.017 561.317 161.128C560.705 160.807 560.055 160.651 559.328 160.651C555.986 160.651 551.365 164.138 547.556 169.534C545.721 172.133 544.284 174.88 543.326 177.475C544.471 177.801 545.741 178.279 546.563 179.441C547.519 180.793 547.424 182.465 547.347 183.809C547.306 184.53 547.264 185.275 547.397 185.698C547.517 186.076 547.98 186.653 548.389 187.162C549.238 188.219 550.294 189.532 550.294 191.262C550.294 192.21 549.977 193.031 549.551 193.755C551.339 194.817 553.336 195.751 555.409 196.494C556.179 196.714 556.94 196.956 557.689 197.221C560.098 197.897 562.544 198.292 564.834 198.292C567.437 198.292 570.804 197.755 572.071 195.195Z" fill="#000080" fill-rule="nonzero" opacity="1" stroke="none"/>
<path d="M495.294 212.635C496.275 219.013 500.078 220.156 504.104 221.367C505.91 221.91 507.617 222.423 508.976 223.439C510.447 224.539 511.521 226.12 512.657 227.793C514.781 230.917 516.787 233.869 521.364 233.869C522.017 233.869 522.718 233.809 523.449 233.69C526.826 233.139 528.375 228.578 528.998 225.908C530.202 220.747 529.995 214.726 528.773 209.883C527.914 210.226 526.955 210.586 525.948 210.586C525.519 210.586 525.106 210.52 524.72 210.391C523.144 209.865 522.26 208.434 521.551 207.285C521.183 206.69 520.802 206.074 520.475 205.828C520.137 205.575 519.442 205.39 518.77 205.21C517.498 204.87 515.916 204.447 514.952 203.084C514.33 202.205 514.154 201.19 514.127 200.218C507.335 201.017 500.073 204.229 496.893 208.061C495.604 209.616 495.066 211.154 495.294 212.635Z" fill="#000080" fill-rule="nonzero" opacity="1" stroke="none"/>
<path d="M533.864 206.38C534.503 206.637 535.164 206.903 535.568 206.903C535.62 206.903 535.662 206.898 535.69 206.888C536.042 206.771 536.564 205.926 536.944 205.31C537.466 204.465 538.057 203.508 538.934 202.851C539.821 202.186 540.896 201.899 541.845 201.645C542.526 201.463 543.46 201.213 543.67 200.917C543.872 200.631 543.816 199.648 543.775 198.931C543.717 197.919 543.652 196.773 543.994 195.69C544.324 194.643 545.019 193.778 545.632 193.015C546.115 192.414 546.715 191.667 546.715 191.262C546.715 190.858 546.114 190.11 545.632 189.51C545.019 188.747 544.324 187.882 543.994 186.835C543.652 185.752 543.717 184.605 543.775 183.594C543.816 182.876 543.872 181.894 543.669 181.608C543.46 181.311 542.527 181.062 541.845 180.879C540.896 180.626 539.821 180.338 538.934 179.674C538.057 179.017 537.466 178.059 536.944 177.215C536.564 176.598 536.042 175.754 535.691 175.636C535.663 175.627 535.62 175.622 535.568 175.622C535.164 175.622 534.503 175.888 533.864 176.145C532.937 176.518 531.885 176.941 530.758 176.941C529.631 176.941 528.58 176.518 527.651 176.145C527.012 175.887 526.352 175.622 525.948 175.622C525.896 175.622 525.853 175.627 525.825 175.636C525.473 175.753 524.952 176.598 524.571 177.214C524.049 178.059 523.458 179.016 522.581 179.674C521.694 180.338 520.618 180.625 519.67 180.879C518.988 181.061 518.055 181.31 517.845 181.607C517.643 181.893 517.699 182.876 517.739 183.593C517.797 184.605 517.862 185.751 517.52 186.834C517.19 187.881 516.495 188.746 515.882 189.509C515.399 190.11 514.799 190.858 514.799 191.262C514.799 191.666 515.399 192.413 515.882 193.014C516.495 193.777 517.19 194.642 517.52 195.689C517.862 196.772 517.797 197.918 517.739 198.93C517.699 199.648 517.643 200.63 517.845 200.916C518.055 201.213 518.988 201.462 519.67 201.644C520.618 201.898 521.693 202.185 522.581 202.85C523.458 203.507 524.049 204.464 524.571 205.309C524.951 205.925 525.473 206.77 525.825 206.888C525.853 206.897 525.895 206.902 525.948 206.902C526.352 206.902 527.012 206.636 527.652 206.379C528.58 206.006 529.631 205.582 530.758 205.582C531.885 205.582 532.937 206.006 533.864 206.38Z" fill="#000080" fill-rule="nonzero" opacity="1" stroke="none"/>
</g>
<g opacity="1">
<path d="M393.936 401.853C391.405 405.306 389.014 408.568 391.821 414.238C393.088 416.798 396.456 417.335 399.058 417.335C404.401 417.335 410.592 415.216 415.169 412.289C414.404 411.31 413.607 410.122 413.607 408.619C413.607 406.889 414.663 405.575 415.512 404.519C415.921 404.009 416.385 403.432 416.504 403.054C416.638 402.631 416.595 401.886 416.554 401.165C416.478 399.821 416.383 398.149 417.339 396.797C418.017 395.838 419.001 395.345 419.968 395.018C419.046 392.881 417.821 390.681 416.337 388.578C412.528 383.181 407.907 379.694 404.564 379.694C403.837 379.694 403.186 379.85 402.575 380.17C396.986 383.102 397.104 387.178 397.23 391.493C397.286 393.43 397.34 395.258 396.82 396.903C396.259 398.683 395.13 400.223 393.936 401.853Z" fill="#000080" fill-rule="nonzero" opacity="1" stroke="none"/>
<path d="M442.296 449.809C443.032 449.929 443.738 449.99 444.396 449.99C449.042 449.99 451.006 447.024 453.086 443.883C454.147 442.283 455.148 440.771 456.508 439.755C457.979 438.654 459.771 438.092 461.668 437.495C465.688 436.233 469.484 435.04 470.451 428.754C470.68 427.273 470.141 425.734 468.852 424.18C466.771 421.673 462.94 419.432 458.639 417.958C458.163 417.816 457.688 417.664 457.214 417.503C454.752 416.774 452.186 416.303 449.741 416.18C449.815 417.505 449.881 419.124 448.95 420.441C447.986 421.803 446.404 422.227 445.132 422.567C444.46 422.746 443.765 422.932 443.427 423.185C443.1 423.431 442.719 424.046 442.352 424.642C441.642 425.791 440.759 427.221 439.183 427.748C438.797 427.877 438.384 427.942 437.955 427.942C437.486 427.942 437.028 427.862 436.585 427.744C435.721 432.24 435.684 437.469 436.748 442.028C437.37 444.698 438.92 449.259 442.296 449.809Z" fill="#000080" fill-rule="nonzero" opacity="1" stroke="none"/>
<path d="M421.752 366.03C419.45 366.03 417.421 367.016 415.365 369.132C412.947 371.62 414.299 376.248 415.32 378.785C417.284 383.666 420.865 388.394 424.6 391.572C425.209 390.705 425.98 389.867 427.107 389.49C427.493 389.361 427.906 389.296 428.335 389.296C429.414 389.296 430.438 389.708 431.342 390.071C432.006 390.339 432.693 390.615 433.146 390.615C433.598 390.615 434.285 390.339 434.949 390.071C435.853 389.708 436.877 389.296 437.956 389.296C438.385 389.296 438.798 389.361 439.184 389.49C440.134 389.808 440.831 390.454 441.391 391.168C444.958 388 448.329 383.465 450.212 378.784C451.233 376.247 452.585 371.62 450.167 369.132C448.099 367.003 446.063 366.012 443.761 366.012C441.812 366.012 439.901 366.717 438.053 367.398C436.281 368.052 434.608 368.669 432.928 368.669C431.11 368.669 429.339 368.04 427.464 367.375C425.601 366.714 423.677 366.03 421.752 366.03Z" fill="#000080" fill-rule="nonzero" opacity="1" stroke="none"/>
<path d="M474.458 412.552C477.307 406.798 474.883 403.572 472.316 400.157C471.165 398.625 470.078 397.178 469.559 395.534C468.997 393.753 469.03 391.825 469.066 389.784C469.142 385.459 469.213 381.373 463.704 378.484C463.092 378.164 462.442 378.008 461.715 378.008C458.373 378.008 453.752 381.494 449.943 386.89C448.109 389.489 446.671 392.237 445.713 394.831C446.858 395.158 448.128 395.636 448.95 396.797C449.906 398.149 449.811 399.822 449.734 401.166C449.693 401.886 449.651 402.631 449.784 403.054C449.904 403.433 450.367 404.01 450.777 404.519C451.625 405.575 452.681 406.889 452.681 408.619C452.681 409.566 452.364 410.388 451.938 411.111C453.727 412.174 455.724 413.107 457.797 413.85C458.566 414.07 459.327 414.313 460.076 414.578C462.485 415.253 464.931 415.648 467.221 415.648C469.824 415.648 473.191 415.111 474.458 412.552Z" fill="#000080" fill-rule="nonzero" opacity="1" stroke="none"/>
<path d="M397.681 429.992C398.662 436.369 402.465 437.513 406.491 438.723C408.297 439.266 410.004 439.78 411.363 440.796C412.834 441.896 413.908 443.476 415.044 445.149C417.168 448.274 419.174 451.226 423.751 451.226C424.404 451.226 425.105 451.166 425.836 451.046C429.213 450.496 430.762 445.935 431.385 443.265C432.589 438.103 432.382 432.082 431.16 427.239C430.301 427.583 429.342 427.942 428.335 427.942C427.906 427.942 427.493 427.876 427.107 427.748C425.531 427.221 424.648 425.791 423.938 424.642C423.57 424.046 423.189 423.43 422.862 423.185C422.524 422.932 421.829 422.746 421.157 422.566C419.885 422.226 418.303 421.803 417.339 420.441C416.717 419.561 416.541 418.547 416.514 417.575C409.722 418.373 402.46 421.585 399.28 425.418C397.991 426.972 397.453 428.511 397.681 429.992Z" fill="#000080" fill-rule="nonzero" opacity="1" stroke="none"/>
<path d="M436.252 423.736C436.89 423.994 437.551 424.259 437.955 424.259C438.007 424.259 438.049 424.254 438.078 424.245C438.429 424.127 438.951 423.283 439.332 422.666C439.853 421.821 440.444 420.864 441.321 420.207C442.208 419.543 443.283 419.255 444.232 419.001C444.913 418.819 445.847 418.57 446.057 418.273C446.259 417.987 446.203 417.005 446.162 416.287C446.104 415.276 446.039 414.129 446.381 413.046C446.711 411.999 447.406 411.134 448.019 410.371C448.502 409.77 449.102 409.023 449.102 408.619C449.102 408.215 448.501 407.467 448.019 406.866C447.406 406.103 446.711 405.238 446.381 404.191C446.039 403.109 446.104 401.962 446.162 400.95C446.203 400.232 446.259 399.25 446.057 398.964C445.847 398.668 444.914 398.418 444.232 398.236C443.283 397.982 442.208 397.695 441.321 397.03C440.444 396.373 439.853 395.416 439.331 394.571C438.951 393.954 438.429 393.11 438.078 392.993C438.05 392.983 438.007 392.978 437.955 392.978C437.551 392.978 436.891 393.244 436.252 393.501C435.324 393.875 434.272 394.298 433.145 394.298C432.018 394.298 430.967 393.874 430.038 393.501C429.399 393.244 428.739 392.978 428.335 392.978C428.283 392.978 428.24 392.983 428.212 392.993C427.86 393.11 427.339 393.954 426.958 394.571C426.436 395.416 425.845 396.373 424.968 397.03C424.081 397.694 423.005 397.982 422.057 398.235C421.375 398.417 420.442 398.667 420.232 398.964C420.03 399.249 420.086 400.232 420.126 400.95C420.184 401.961 420.249 403.108 419.908 404.191C419.577 405.238 418.882 406.102 418.269 406.865C417.786 407.466 417.186 408.214 417.186 408.618C417.186 409.022 417.787 409.77 418.269 410.371C418.882 411.134 419.577 411.999 419.908 413.046C420.249 414.128 420.184 415.275 420.126 416.286C420.086 417.004 420.03 417.987 420.232 418.273C420.442 418.569 421.375 418.819 422.057 419.001C423.005 419.255 424.081 419.542 424.968 420.206C425.845 420.863 426.436 421.82 426.958 422.665C427.339 423.282 427.86 424.126 428.212 424.244C428.24 424.253 428.282 424.258 428.335 424.258C428.739 424.258 429.399 423.992 430.039 423.735C430.967 423.362 432.018 422.939 433.145 422.939C434.272 422.939 435.324 423.363 436.252 423.736Z" fill="#000080" fill-rule="nonzero" opacity="1" stroke="none"/>
</g>
<path d="M533.355 351.165C533.199 350.939 532.973 350.418 532.817 350.019C532.504 349.116 532.678 347.918 533.32 346.598C533.772 345.712 535.248 344.01 536.012 343.524C536.412 343.281 536.429 343.212 536.238 342.586C536.134 342.204 536.082 341.423 536.134 340.78C536.221 339.791 536.186 339.617 535.873 339.322C535.561 339.044 535.474 339.026 535.161 339.252C534.762 339.547 533.946 340.694 533.928 341.006C533.928 341.11 533.824 341.336 533.72 341.492C531.341 344.583 529.552 345.122 527.225 343.472C526.756 343.142 526.114 342.691 525.784 342.447L525.176 342.013L523.405 342.256C520.487 342.638 519.202 343.42 518.56 345.209C518.456 345.486 518.299 345.712 518.212 345.677C518.126 345.66 517.952 345.035 517.83 344.288C517.553 342.552 517.761 341.735 518.751 340.624C519.602 339.669 521.269 338.783 522.641 338.523C523.769 338.314 523.874 338.245 523.874 337.741C523.874 336.404 525.246 335.015 526.826 334.772C527.694 334.633 528.146 334.181 528.458 333.14C528.753 332.132 528.632 331.941 527.295 331.021C526.114 330.222 525.124 329.267 524.898 328.677C524.707 328.19 523.874 328.017 522.172 328.156C520.001 328.312 518.004 329.597 517.605 331.09C517.327 332.132 516.997 331.82 517.066 330.604C517.136 329.284 517.57 328.329 518.577 327.235C520.071 325.655 520.887 325.308 523.405 325.256L525.089 325.203L525.593 324.613C525.871 324.266 526.409 323.78 526.808 323.502C527.468 323.05 527.59 323.015 528.667 323.137C530.021 323.276 530.455 323.484 531.532 324.491C531.983 324.908 532.782 325.481 533.303 325.777L534.293 326.28L535.422 325.672C537.401 324.613 538.461 323.172 538.6 321.314C538.721 319.473 537.836 318.275 535.908 317.719C534.71 317.372 533.894 317.441 529.952 318.223C529.066 318.396 526.287 319.542 524.968 320.254C524.672 320.411 524.047 320.758 523.561 321.018C522.745 321.453 520.175 323.206 517.622 325.03C513.559 327.965 510.207 329.875 506.595 331.351C503.938 332.445 500.083 332.914 497.808 332.428C497.322 332.323 496.888 332.271 496.836 332.323C496.801 332.358 497.148 332.896 497.634 333.504C498.121 334.112 498.728 334.946 498.989 335.345C499.249 335.744 499.579 336.109 499.736 336.161C499.874 336.213 500.465 336.613 501.038 337.029C503.261 338.714 505.466 339.686 507.949 340.086C508.696 340.207 509.235 340.364 509.165 340.45C508.748 340.867 504.146 340.589 501.472 339.982C497.495 339.079 495.985 338.523 494.057 337.255C493.38 336.804 492.737 336.439 492.633 336.439C492.512 336.439 492.442 336.717 492.425 337.081C492.425 337.985 492.112 339.808 491.834 340.572C491.088 342.621 490.862 343.09 490.497 343.368C490.271 343.541 489.855 343.906 489.577 344.167C487.892 345.66 484.419 346.198 481.102 345.469C476.535 344.462 472.977 341.006 471.346 336.022C470.912 334.685 470.758 333.313 471.044 333.313C471.124 333.313 471.4 333.765 471.661 334.338C471.921 334.893 472.267 335.519 472.43 335.71C472.592 335.918 473.036 336.508 473.415 337.047C474.297 338.297 475.719 339.252 477.126 339.547C478.55 339.86 481.068 339.738 481.762 339.322C482.926 338.627 483.672 336.63 483.256 335.258C482.891 334.008 481.05 331.768 479.157 330.274C478.671 329.892 478.237 329.527 478.202 329.475C478.15 329.423 477.647 329.024 477.074 328.59C475.771 327.583 474.719 326.489 473.47 324.804C472.256 323.172 472.048 322.755 471.607 321.07C471.411 320.324 471.221 319.681 471.185 319.647C471.148 319.612 470.582 319.699 469.924 319.838C467.814 320.289 465.737 320.497 464.626 320.376C463.553 320.237 461.186 319.195 461.054 318.796C461.012 318.657 461.542 318.622 462.79 318.691C464.93 318.778 466.026 318.518 467.45 317.58C468.931 316.608 469.738 315.01 470.303 311.954C470.73 309.627 470.641 308.88 469.599 306.049C469.441 305.615 468.868 304.73 468.327 304.052C467.785 303.392 467.137 302.566 466.885 302.229C465.878 300.88 463.275 298.655 461.924 297.99C459.939 297.011 457.765 296.147 457.291 296.147C457.096 296.147 456.077 295.904 455.025 295.606L453.113 295.064L449.027 295.151C443.909 295.26 442.053 295.611 436.518 297.514C432.953 298.74 429.068 300.798 425.142 303.549C419.135 307.734 416.393 309.522 414.429 310.478C413.731 310.825 412.965 311.207 412.727 311.328C410.9 312.301 406.222 313.829 403.904 314.228C403.265 314.333 401.662 314.454 400.342 314.472C399.022 314.506 397.908 314.558 397.864 314.593C397.821 314.645 397.67 315.288 397.526 316.034C397.383 316.781 397.157 317.702 397.025 318.101C396.567 319.438 395.735 321.453 395.35 322.13C395.138 322.494 394.796 323.12 394.591 323.502C393.361 325.777 391.434 328.503 391.172 328.347C391.048 328.277 391.489 327.009 391.878 326.332C391.97 326.176 392.22 325.325 392.436 324.422C393.118 321.591 392.941 317.406 392.057 315.514C391.878 315.131 391.653 314.593 391.554 314.333C391.456 314.072 391.309 313.864 391.229 313.864C391.147 313.864 390.993 314.628 390.885 315.548C390.503 318.848 389.517 323.154 388.4 326.384C387.638 328.59 385.866 331.681 385.547 331.368C385.488 331.316 385.71 330.378 386.042 329.284C386.867 326.593 387.037 325.516 387.044 323.033C387.051 320.793 386.693 318.744 386.231 318.361C385.965 318.136 385.891 318.379 385.726 319.942C385.536 321.73 385.266 323.328 385.033 324.023C384.904 324.405 384.548 325.533 384.243 326.541C383.937 327.548 383.546 328.763 383.374 329.232C383.029 330.205 381.23 333.608 380.851 333.99C380.393 334.477 380.384 334.008 380.822 332.584C381.68 329.771 381.964 326.871 381.563 324.978C381.218 323.345 380.961 322.547 380.782 322.547C380.705 322.547 380.427 323.467 380.165 324.578C379.622 326.905 378.58 329.91 377.743 331.577C376.64 333.747 374.806 336.613 374.513 336.613C374.268 336.613 374.301 336.474 374.909 334.963C375.463 333.591 375.466 333.539 375.473 330.535C375.477 328.624 375.412 327.496 375.305 327.478C375.209 327.478 374.798 328.451 374.391 329.632C373.129 333.348 369.918 338.87 369.024 338.87C368.68 338.87 368.74 338.419 369.255 337.151C369.878 335.605 370.036 332.532 369.541 331.577C369.128 330.795 368.793 330.691 368.793 331.351C368.793 331.959 368.214 333.938 367.716 335.05C366.889 336.89 365.194 339.304 363.727 340.728C362.991 341.44 362.074 341.926 361.869 341.718C361.812 341.666 362.05 341.093 362.395 340.468C363.229 338.922 364.271 334.65 363.989 333.904C363.849 333.539 363.623 333.608 363.482 334.043C363.414 334.268 363.057 335.084 362.689 335.883C362.32 336.682 362.02 337.359 362.02 337.394C362.02 337.637 360.33 340.259 359.743 340.937C358.528 342.309 355.9 344.358 355.583 344.149C355.294 343.976 355.404 343.767 356.385 342.621C357.495 341.301 357.93 340.225 358.278 337.915C358.629 335.588 358.408 335.484 357.279 337.429C355.753 340.068 353.554 342.725 351.601 344.288C350.71 345 348.989 346.042 348.883 345.938C348.843 345.886 349.401 345.243 350.119 344.497C351.531 343.021 352.233 341.805 352.818 339.825C353.554 337.325 353.428 336.265 352.554 337.655C352.184 338.245 351.415 339.322 350.769 340.173C350.696 340.259 350.446 340.624 350.213 340.954C348.432 343.524 344.081 346.598 341.787 346.91C339.471 347.223 338.577 347.24 338.577 346.98C338.577 346.824 338.997 346.58 339.749 346.337C342.984 345.261 344.493 343.837 346.365 340.016C346.921 338.888 346.968 337.29 346.467 336.439C346.146 335.883 346.03 335.831 345.252 335.779C344.611 335.744 344.201 335.831 343.658 336.126C342.807 336.595 340.157 339.131 339.434 340.19C338.368 341.735 336.071 343.35 334.537 343.628C334.016 343.715 333.818 343.871 333.549 344.392C333.365 344.74 332.799 345.573 332.292 346.25C331.524 347.258 331.165 347.57 330.158 348.074C329.041 348.63 328.824 348.682 327.379 348.682C326.228 348.682 325.582 348.595 324.945 348.334L324.076 347.987L324.945 347.865C325.422 347.813 326.146 347.744 326.554 347.744C327.862 347.709 328.571 347.067 329.56 345.018C330.029 344.045 330.415 343.159 330.415 343.038C330.415 342.934 330.231 342.586 330.008 342.291C329.562 341.683 329.343 341.145 329.015 339.825C328.666 338.436 328.39 338.002 327.848 338.002C327.24 338.002 326.709 338.367 325.459 339.634C324.224 340.885 322.508 342.048 321.319 342.465C320.197 342.847 318.444 342.847 317.287 342.447C316.801 342.291 316.293 342.204 316.158 342.256C315.663 342.465 314.308 344.549 313.859 345.799C313.214 347.588 313.248 348.161 314.078 349.394C314.453 349.949 314.732 350.436 314.698 350.47C314.663 350.505 314.23 350.314 313.734 350.054C312.754 349.515 312.299 348.994 311.572 347.588C311.141 346.754 311.11 346.563 311.223 345.504C311.292 344.861 311.483 343.976 311.649 343.541C311.958 342.725 313.209 340.902 313.63 340.659C314.011 340.433 314.233 339.86 314.081 339.478C313.851 338.905 313.9 337.394 314.17 336.734C314.438 336.092 316.22 334.355 316.607 334.355C316.734 334.355 317.046 334.112 317.3 333.799C317.643 333.4 317.734 333.14 317.655 332.81C317.528 332.271 316.992 331.785 316.37 331.646C315.812 331.525 314.62 330.969 314.258 330.674C313.658 330.17 313.23 329.319 313.063 328.277C312.966 327.669 312.865 327.166 312.838 327.166C312.811 327.148 312.08 326.957 311.215 326.749C309.586 326.367 308.81 326.384 307.968 326.818C307.381 327.131 306.513 328.277 306.364 328.972C306.122 330.066 305.297 330.083 305.473 328.972C305.76 327.183 306.585 325.342 307.471 324.526C308.507 323.571 310.588 323.345 312.99 323.953L313.887 324.162L314.357 323.606C315.027 322.807 315.66 322.547 316.855 322.547C317.826 322.547 319.011 322.963 319.301 323.415C319.428 323.606 320.687 323.936 321.331 323.936C321.661 323.936 322.074 323.762 322.35 323.536L322.816 323.137L322.447 321.053C321.819 317.528 321.961 316.833 323.625 315.305L324.648 314.385L324.243 312.822C324.021 311.971 323.76 311.12 323.663 310.946C323.387 310.425 321.89 309.748 320.53 309.522C319.1 309.279 319.103 309.14 320.556 308.446C321.386 308.029 321.572 308.012 322.566 308.151C324.009 308.342 324.352 308.533 325.54 309.731C326.171 310.373 326.792 311.554 327.371 313.204C327.539 313.673 327.794 314.055 327.987 314.124C328.47 314.281 329.196 315.201 329.675 316.295C330.061 317.146 330.088 317.389 330 318.987C329.946 319.942 329.854 320.897 329.795 321.088C329.602 321.765 330.182 323.311 330.885 324.005C331.427 324.526 331.656 324.63 332.285 324.63C332.698 324.63 333.247 324.509 333.506 324.387C334.025 324.109 335.222 322.877 336.132 321.678C336.861 320.706 338.589 319.334 339.724 318.813C341.145 318.17 343.012 317.945 344.786 318.188C347.035 318.518 349.904 318.153 352.469 317.233C356.333 315.843 359.563 314.419 360.261 313.794C360.428 313.638 361.303 313.325 362.204 313.1C363.105 312.857 364.194 312.561 364.625 312.422C365.054 312.284 365.875 312.023 366.448 311.867C367.575 311.537 368.185 311.294 369.661 310.599C372.248 309.366 376.39 306.952 377.168 306.223C377.652 305.754 378.17 305.459 378.168 305.65C378.166 305.719 378.047 306.171 377.901 306.657C377.435 308.185 377.295 309.731 377.481 311.276C377.685 312.978 378.109 314.993 378.363 315.461C378.462 315.635 378.573 315.948 378.611 316.156C378.689 316.555 378.823 316.746 378.951 316.608C379 316.555 379.113 315.93 379.203 315.218C379.408 313.603 379.509 313.343 380.511 311.797C380.999 311.051 381.587 310.373 381.999 310.113C382.636 309.713 382.827 309.696 385.156 309.679C387.464 309.679 389.076 309.47 390.76 309.001C391.142 308.897 392.352 308.637 393.452 308.428C396.866 307.768 400.855 308.185 402.501 309.366C402.944 309.679 403.871 309.818 403.871 309.575C403.871 309.522 403.499 309.054 403.046 308.567C402.593 308.064 401.947 307.161 401.613 306.57C401.018 305.476 399.299 303.444 398.986 303.444C398.901 303.444 398.394 303.149 397.862 302.798C396.942 302.189 396.914 302.149 397.3 302C397.531 301.911 399.238 301.894 401.264 301.96C404.687 302.073 404.892 302.1 406.669 302.673C408.438 303.253 409.127 303.618 413.248 306.171C414.523 306.952 415.607 307.386 415.801 307.195C415.874 307.126 415.787 306.813 415.608 306.518C414.679 304.921 414.233 304.035 413.865 303.01C412.708 299.824 410.694 298.068 407.084 297.096C406.319 296.891 405.722 296.651 405.759 296.564C405.793 296.479 406.224 296.259 406.714 296.078C408.64 295.363 411.312 293.447 412.047 292.252C412.278 291.877 412.689 291.309 412.962 290.993C413.434 290.445 413.439 290.417 413.087 290.417C412.884 290.417 412.158 290.71 411.475 291.068C410.248 291.712 410.208 291.719 408.223 291.719C406.523 291.719 406.089 291.66 405.39 291.339C404.937 291.129 404.566 290.886 404.566 290.797C404.566 290.709 404.897 290.549 405.304 290.443C406.96 290.011 413.887 288.729 417.59 288.17C418.21 288.076 419.969 287.809 421.497 287.576C424.039 287.189 424.803 287.095 427.401 286.845C427.879 286.798 428.777 286.687 429.398 286.596C430.018 286.506 430.84 286.39 431.222 286.338C431.604 286.286 432.151 286.206 432.437 286.159C433.641 285.966 440.929 285.369 445.19 285.113C447.717 284.962 449.844 284.801 449.917 284.756C450.226 284.565 459.946 284.704 462.914 284.942C466.951 285.265 472.494 286.122 474.201 286.687C475.736 287.196 475.997 287.213 476.309 286.829C476.431 286.671 477.178 286.013 477.959 285.367C479.21 284.309 479.817 283.898 482.301 282.352C483.343 281.706 486.868 280.227 488.5 279.744C489.282 279.515 490.271 279.202 490.705 279.046C492.182 278.508 494.977 277.846 496.61 277.643C496.836 277.613 498.121 277.502 499.458 277.398C500.777 277.294 501.941 277.162 502.028 277.104C502.323 276.929 512.273 277.03 513.281 277.219C514.462 277.443 523.561 277.587 525.089 277.405C525.697 277.33 527.156 277.177 528.302 277.066C529.448 276.953 530.889 276.787 531.514 276.696C532.122 276.606 533.529 276.405 534.64 276.25C543.254 275.029 550.964 271.679 552.961 268.29C553.482 267.404 554.02 265.164 554.072 263.71C554.124 261.849 553.152 260.279 551.103 258.97C550.269 258.438 550.113 258.402 548.463 258.36C546.084 258.299 541.326 259.152 539.537 259.956C536.446 261.347 535.769 261.793 534.953 262.931C533.946 264.32 533.737 264.886 533.633 266.386C533.564 267.541 533.616 267.991 533.928 268.871C534.31 270.005 534.432 270.193 535.196 270.973C535.7 271.478 536.915 271.917 538.322 272.098C540.18 272.338 538.686 272.966 536.29 272.961C534.744 272.958 534.432 272.904 533.546 272.473C532.174 271.803 530.698 270.275 529.899 268.696C529.535 267.988 529.257 267.286 529.257 267.137C529.257 266.987 529.135 266.715 528.996 266.529C528.736 266.202 528.719 266.211 528.198 266.8C525.523 269.847 524.829 270.474 522.745 271.664C522.328 271.903 521.842 272.225 521.668 272.378C521.495 272.53 520.765 272.951 520.053 273.312C518.039 274.324 517.778 274.441 517.5 274.441C517.362 274.441 517.084 274.552 516.875 274.687C516.389 274.995 514.375 275.656 513.923 275.656C513.645 275.656 513.611 275.608 513.784 275.413C513.888 275.279 514.166 275.123 514.392 275.067C514.618 275.01 515.33 274.613 515.99 274.182C516.65 273.751 517.24 273.399 517.309 273.399C517.657 273.399 519.793 270.931 520.296 269.941C520.713 269.125 521.269 267.104 521.269 266.374C521.269 265.619 520.835 264.725 520.296 264.318C519.48 263.71 517.275 263.785 514.93 264.502C513.854 264.825 511.509 266.395 510.624 267.378C509.564 268.538 508.123 270.483 507.845 271.141C507.706 271.476 507.463 272.029 507.307 272.369C507.151 272.709 506.942 273.512 506.821 274.151C506.699 274.788 506.525 275.286 506.439 275.257C506.334 275.227 506.039 274.503 505.779 273.649C505.275 272.127 505.275 272.041 505.379 269.384C505.466 267.552 505.431 266.633 505.31 266.557C505.102 266.421 501.854 269.439 500.882 270.693C500.5 271.178 500.135 271.615 500.083 271.662C499.874 271.836 498.885 273.505 498.503 274.317C498.294 274.776 498.034 275.121 497.93 275.087C497.825 275.052 497.582 274.599 497.409 274.081C497.061 273.126 496.94 270.895 497.131 269.231C497.218 268.455 497.2 268.449 496.714 268.503C496.436 268.533 495.933 268.767 495.585 269.024C494.752 269.667 492.598 272.155 491.643 273.597C491.209 274.251 490.792 274.786 490.723 274.784C490.549 274.777 489.82 272.449 489.716 271.49C489.629 270.848 489.542 270.62 489.334 270.62C489.177 270.622 487.996 270.961 486.711 271.376C485.409 271.789 483.69 272.306 482.891 272.525C482.075 272.742 481.259 272.98 481.068 273.055C480.477 273.277 477.733 274.039 474.896 274.769C467.677 276.622 466.046 277.038 465.084 277.276C464.511 277.417 462.811 277.853 461.307 278.245C453.455 280.286 448.882 281.375 445.461 282.017C444.102 282.272 442.608 282.606 439.644 283.318C438.154 283.674 436.039 283.995 432.698 284.372C429.886 284.69 424.465 284.572 422.452 284.15C421.544 283.959 420.294 283.728 419.674 283.634C416.895 283.217 412.413 281.201 410.847 279.662C409.207 278.053 407.961 275.955 407.422 273.899C407.054 272.49 407.044 269.663 407.403 268.363C407.761 267.064 408.645 264.513 408.912 264.002C409.765 262.38 412.67 259.735 414.747 258.694C415.282 258.424 415.964 258.072 416.265 257.909C416.978 257.521 420.693 256.311 422.018 256.037C422.591 255.917 423.294 255.757 423.581 255.679C424.737 255.368 430.039 255.121 433.005 255.241C434.67 255.309 436.124 255.392 436.233 255.427C436.341 255.462 437.017 255.54 437.734 255.599C441.556 255.915 442.799 256.045 445.895 256.445C453.545 257.433 458.763 257.773 468.123 257.893C474.741 257.978 478.081 257.858 481.849 257.402C483.273 257.228 486.798 256.66 487.614 256.472C487.823 256.422 488.274 256.349 488.622 256.309C490.428 256.101 494.456 254.521 496.558 253.197C496.957 252.942 497.339 252.734 497.374 252.734C497.634 252.734 497.409 253.505 496.888 254.409C495.012 257.723 493.484 259.388 490.914 260.948C488.535 262.384 484.749 263.863 482.196 264.351C481.571 264.471 480.512 264.679 479.852 264.817C479.175 264.952 478.081 265.107 477.421 265.159C476.744 265.211 475.771 265.329 475.243 265.421C473.699 265.692 464.536 265.629 462.038 265.331C459.442 265.02 458.261 264.825 456.803 264.471C455.132 264.065 452.475 263.644 452.213 263.745C452.031 263.815 452.071 264.016 452.392 264.666C453.689 267.284 454.436 269.528 454.688 271.563C454.735 271.938 454.846 272.383 454.936 272.551C455.148 272.947 454.891 273.109 454.262 272.971C453.96 272.905 453.67 272.657 453.476 272.296C452.894 271.216 451.357 269.783 448.832 267.967C446.066 265.977 440.215 262.847 438.062 262.208C436.952 261.878 436.89 262.023 437.475 263.575C437.935 264.799 438.243 266.994 438.145 268.363C437.961 270.934 437.761 271.749 436.852 273.677C436.317 274.81 435.073 276.346 434.86 276.137C434.789 276.068 434.87 275.647 435.04 275.203C435.282 274.569 435.327 274.109 435.245 273.072C435.113 271.414 434.342 269.057 433.929 269.057C433.849 269.057 433.602 269.623 433.384 270.316C432.599 272.791 430.234 276.351 429.374 276.351C429.117 276.351 429.164 276.184 429.676 275.278C430.444 273.92 430.689 272.787 430.548 271.235C430.423 269.834 429.688 267.189 429.324 266.824C429.11 266.612 429.049 266.68 428.876 267.322C428.485 268.779 427.835 269.952 426.844 270.994C424.262 273.706 421.473 274.918 418.948 274.421C417.376 274.112 415.678 273.053 415.428 272.226C415.287 271.766 415.586 271.711 416.103 272.101C416.289 272.242 416.718 272.357 417.06 272.357C419.302 272.357 421.033 270.493 421.2 267.901C421.316 266.096 421.144 265.789 419.627 265.089C418.442 264.546 418.317 264.523 417.456 264.695C416.372 264.914 415.162 265.584 414.558 266.301C413.971 266.999 413.422 268.865 413.422 270.162C413.422 271.66 414.094 273.011 415.652 274.642C416.687 275.726 417.074 276 418.229 276.472C420.446 277.379 425.383 278.317 427.571 278.245C428.146 278.228 430.18 278.252 432.09 278.299C435.44 278.384 436.572 278.329 439.557 277.938C440.321 277.837 441.403 277.711 441.96 277.653C443.763 277.473 448.21 276.452 451.8 275.394C452.229 275.267 453.166 274.993 453.884 274.784C454.599 274.578 456.162 274.105 457.357 273.737C459.463 273.086 461.908 272.454 464.042 272.008C465.347 271.735 468.149 270.962 470.641 270.19C471.692 269.865 473.02 269.467 473.594 269.307C474.167 269.148 475.377 268.792 476.292 268.517C477.195 268.243 478.567 267.863 479.331 267.673C480.095 267.482 481.693 267.048 482.891 266.706C484.072 266.364 485.878 265.862 486.885 265.589C487.875 265.317 489.49 264.864 490.445 264.58C491.4 264.297 492.703 263.934 493.362 263.776C494.022 263.617 495.273 263.266 496.141 262.997C497.009 262.726 498.937 262.174 500.43 261.769C501.906 261.363 503.782 260.838 504.598 260.6C505.397 260.364 506.369 260.095 506.751 260.005C507.116 259.913 509.426 259.265 511.874 258.563C514.305 257.862 516.58 257.233 516.927 257.165C517.257 257.098 518.16 256.86 518.924 256.636C523.978 255.154 532.574 253.018 535.595 252.498C536.446 252.35 537.662 252.109 538.287 251.961C540.041 251.544 546.275 251.251 548.411 251.485C550.2 251.68 552.353 252.331 553.239 252.939C553.499 253.112 553.76 253.255 553.812 253.255C553.881 253.255 554.281 253.489 554.697 253.776C555.114 254.062 555.514 254.298 555.583 254.298C555.67 254.3 556.174 254.698 556.729 255.184C558.622 256.844 559.786 259.477 560.046 262.632C560.15 263.898 559.838 266.487 559.438 267.505C559.247 268.024 558.969 268.83 558.83 269.293C558.431 270.575 557.424 272.129 556.538 272.845C556.087 273.197 555.687 273.534 555.653 273.593C555.34 273.98 552.666 275.502 550.981 276.259C548.967 277.158 544.712 278.594 542.715 279.055C542.611 279.075 541.864 279.253 541.066 279.445C540.249 279.64 539.068 279.879 538.461 279.978C537.836 280.077 536.62 280.284 535.769 280.439C533.963 280.76 527.208 281.488 523.526 281.76C522.137 281.861 520.939 282 520.869 282.069C520.8 282.139 520.852 282.694 521.008 283.306C521.182 283.985 521.269 284.759 521.217 285.291C521.078 286.534 520.227 287.958 520.227 286.926C520.227 286.551 519.636 285.923 518.317 284.86C517.448 284.151 514.514 282.517 514.375 282.658C514.323 282.71 514.375 283.05 514.514 283.415C514.635 283.78 514.739 284.157 514.757 284.252C514.757 284.348 514.826 284.73 514.913 285.1C515.156 286.216 514.531 289.201 514.062 289.201C513.75 289.201 513.541 288.903 513.194 287.961C512.829 286.97 511.301 285.12 510.19 284.323C508.314 282.972 505.9 281.571 505.727 281.738C505.622 281.847 505.761 282.316 506.109 283.08C507.463 286.001 507.602 288.406 506.543 291.155C506.057 292.421 505.64 292.704 505.64 291.757C505.64 290.92 504.719 288.894 503.903 287.899C502.445 286.14 501.194 284.985 500.239 284.525C497.791 283.328 495.967 283.255 492.998 284.236C491.261 284.804 490.879 285.006 489.855 285.888C488.344 287.196 486.885 288.894 486.885 289.349C486.885 289.627 487.041 289.752 487.614 289.896C488.014 290 488.865 290.233 489.49 290.412C490.098 290.592 490.914 290.795 491.279 290.863C491.661 290.929 492.477 291.174 493.102 291.407C495.307 292.214 498.885 293.128 502.097 293.704C502.584 293.793 503.278 293.94 503.66 294.034C504.025 294.128 505.119 294.296 506.074 294.407C507.029 294.519 508.227 294.673 508.766 294.751C509.721 294.894 512.464 294.73 514.062 294.435C516.129 294.053 518.577 293.098 520.244 292.034C522.606 290.516 523.787 289.389 525.141 287.326C525.61 286.628 526.027 286.102 526.096 286.157C526.374 286.435 525.819 289.507 525.263 290.881C525.176 291.087 524.551 291.997 523.891 292.902C522.866 294.263 522.363 294.767 520.869 295.837C519.897 296.547 518.786 297.308 518.421 297.528C517.396 298.155 517.796 298.294 520.696 298.29C523.613 298.287 525.628 297.938 528.736 296.892C532.47 295.635 534.067 294.795 536.394 292.852C537.471 291.954 539.815 289.63 541.934 287.361C544.816 284.257 547.022 282.845 550.339 281.975C552.891 281.309 554.35 281.382 556.694 282.298C558.431 282.979 560.515 284.308 560.515 284.737C560.515 284.827 560.376 284.86 560.202 284.808C557.823 284.087 557.077 283.964 555.774 284.075C554.229 284.205 552.301 284.702 551.259 285.226C550.46 285.636 548.29 287.793 547.89 288.58C547.734 288.873 547.543 289.154 547.473 289.201C547.282 289.333 546.362 291.221 545.841 292.588C545.042 294.598 543.844 296.948 543.392 297.372C543.167 297.592 542.976 297.828 542.976 297.9C542.976 297.971 544.243 298.016 545.789 298C548.255 297.974 548.811 298.023 550.182 298.382C555.323 299.735 558.257 301.791 560.237 305.442C561.522 307.803 561.713 308.22 561.713 308.81L561.73 309.418L560.984 308.706C559.942 307.699 558.101 306.501 556.955 306.067C556.243 305.806 555.583 305.702 554.559 305.702C552.509 305.702 549.366 306.553 550.217 306.865C551.763 307.421 555.514 310.981 556.26 312.596C556.764 313.69 557.007 314.194 557.424 314.993C558.396 316.833 559.178 319.16 559.751 321.904C560.584 326.002 560.619 329.805 559.803 326.801C558.987 323.884 556.174 320.376 553.603 319.091C552.214 318.396 552.197 318.622 553.482 320.029C554.281 320.879 555.548 322.79 555.791 323.502C555.826 323.588 556.104 324.214 556.417 324.891C556.729 325.551 557.215 326.697 557.476 327.409C557.754 328.121 558.066 328.868 558.205 329.059C558.327 329.232 558.431 329.597 558.431 329.857C558.431 330.118 558.518 330.552 558.622 330.83C558.761 331.212 558.865 333.452 558.796 334.685C558.761 335.102 558.362 334.563 558.084 333.747C557.771 332.81 556.486 331.056 555.791 330.587C554.975 330.066 553.916 329.927 553.152 330.239C552.249 330.622 552.162 331.195 552.857 332.08C553.152 332.445 553.395 332.844 553.395 332.931C553.395 333.035 553.569 333.226 553.794 333.348C554.02 333.469 554.697 334.129 555.323 334.807C556.521 336.161 556.938 337.116 556.885 338.471C556.851 339.322 556.208 340.746 555.479 341.579C555.149 341.944 554.958 342.413 554.871 343.038C554.541 345.608 552.197 347.987 549.436 348.577C548.915 348.682 548.168 348.768 547.734 348.768C546.779 348.768 545.372 348.404 545.459 348.178C545.476 348.074 546.015 347.831 546.622 347.64C547.994 347.188 549.54 346.459 550.182 345.955C550.721 345.521 551.294 344.375 551.294 343.715C551.311 343.316 551.19 343.229 550.512 343.038C549.957 342.882 549.54 342.586 549.054 342.048C548.324 341.214 548.203 340.763 548.116 338.749C548.081 337.915 547.96 337.516 547.595 336.96C547.143 336.283 547.091 336.248 546.744 336.491C545.928 337.029 545.667 337.62 545.667 338.835C545.685 339.478 545.772 340.173 545.893 340.381C546.015 340.607 546.119 341.353 546.119 342.048C546.136 343.489 545.858 344.219 544.99 344.983C543.566 346.25 542.125 346.528 540.11 345.955C539.433 345.764 538.739 345.573 538.548 345.521C538.148 345.434 536.342 346.754 535.37 347.865C534.623 348.699 533.911 350.071 533.841 350.818C533.772 351.582 533.668 351.651 533.355 351.165ZM393.848 350.748C393.363 349.672 393.422 347.518 393.966 346.459C394.872 344.67 396.423 343.455 398.053 343.212L398.748 343.125L398.844 341.909C398.944 340.641 399.194 340.086 400.099 339.096C400.681 338.471 400.637 338.019 399.962 337.655C399.627 337.464 399.436 337.464 399.088 337.62C397.722 338.245 395.581 337.359 394.86 335.866C394.659 335.449 394.494 335.032 394.494 334.928C394.494 334.65 390.873 334.459 389.999 334.685C389.131 334.928 388.101 335.796 387.784 336.543C387.507 337.22 387.205 337.446 387.184 337.012C387.141 336.092 387.247 334.772 387.393 334.39C387.603 333.834 388.478 332.827 389.188 332.306C390.057 331.681 391.965 331.195 393.351 331.264L394.554 331.316L395.209 330.361C396.003 329.232 397.107 328.312 397.88 328.173C398.267 328.104 398.703 328.173 399.233 328.416C401.07 329.232 401.542 329.059 401.879 327.478C401.999 326.905 402.148 326.332 402.211 326.176C402.504 325.464 399.446 323.588 397.991 323.588C397.368 323.588 395.709 324.231 395.709 324.474C395.709 324.561 395.553 324.63 395.362 324.63C395.171 324.63 395.016 324.561 395.02 324.491C395.032 324.231 396.157 322.738 396.609 322.373C397.89 321.383 400.115 321.209 401.527 321.991C403.244 322.963 403.73 323.259 404.218 323.606C404.614 323.901 404.878 323.953 405.521 323.884C406.458 323.78 407.931 324.127 408.91 324.683C409.676 325.117 411.415 326.315 411.84 326.714C412.253 327.096 414.535 328.989 415.165 329.475C416.011 330.118 416.853 330.344 418.5 330.344C419.746 330.361 420.226 330.274 421.191 329.892C423.892 328.833 425.448 326.975 425.435 324.856C425.425 322.859 424.454 322.043 422.41 322.303C421.224 322.442 420.148 323.033 418.934 324.196C417.833 325.238 417.215 326.332 416.888 327.791C416.765 328.347 416.607 328.798 416.536 328.798C416.357 328.798 415.633 327.496 415.231 326.454C414.964 325.759 414.898 325.134 414.9 323.363C414.903 321.209 414.891 321.14 414.552 321.227C414.36 321.279 413.351 321.453 412.307 321.609C410.713 321.852 410.147 321.869 408.747 321.713C406.986 321.505 404.588 320.862 403.65 320.341C402.424 319.664 400.545 318.118 400.056 317.372C399.431 316.434 399.533 316.121 400.283 316.694C402.768 318.587 406.919 319.334 410.123 318.448C412.858 317.684 412.691 317.806 417.258 313.273C419.913 310.651 421.971 308.758 422.768 308.237C424.866 306.831 428.81 305.407 431.743 305.007C432.507 304.921 434.304 304.677 435.737 304.486C441.608 303.688 446.465 302.696 449.455 301.677C450.859 301.197 452.543 300.411 454.21 299.456C454.877 299.074 455.327 299.108 456.923 299.664C458.322 300.15 461.438 301.812 462.188 302.472C462.782 302.993 463.782 304.816 463.782 305.372C463.782 305.528 463.419 305.928 462.976 306.24C461.099 307.612 460.028 308.81 459.001 310.703L458.006 312.544L458.011 314.159C458.017 315.427 458.093 315.93 458.381 316.521C458.581 316.937 458.746 317.372 458.746 317.511C458.746 317.632 459.25 318.605 459.866 319.664C461.302 322.147 462.921 323.745 466.474 326.211C467.656 327.044 470.846 328.677 472.618 329.354C473.42 329.666 474.083 329.996 474.094 330.101C474.139 330.483 472.156 330.604 470.506 330.309C469.625 330.153 468.268 329.944 467.488 329.84C465.517 329.58 462.565 328.659 460.259 327.6C459.187 327.096 458.835 327.148 459.142 327.756C459.824 329.093 460.71 331.577 461.156 333.4C462.516 338.957 462.955 339.999 464.793 342.031C466.376 343.785 469.778 344.566 472.204 343.732C473.838 343.159 473.941 343.333 472.64 344.427C471.11 345.695 468.427 346.494 465.571 346.494C462.275 346.511 460.767 345.938 459.027 344.028C457.642 342.5 456.832 341.336 455.827 339.391C455.17 338.123 454.451 337.064 453.363 335.744C453.219 335.571 452.935 335.38 452.734 335.328C452.324 335.206 452.281 335.275 451.635 337.394C450.841 339.982 448.646 342.725 445.171 345.452C442.907 347.223 441.04 348.317 440.743 348.004C440.686 347.952 441.035 347.483 441.519 346.945C442.672 345.677 444.098 343.541 444.324 342.725C444.619 341.666 444.543 339.721 444.166 338.627C443.808 337.585 443.126 336.265 442.95 336.265C442.893 336.265 442.699 336.943 442.514 337.776C442.061 339.86 441.009 341.874 439.22 344.097C437.833 345.834 436.086 347.553 435.705 347.553C435.613 347.553 435.235 347.779 434.865 348.057C434.255 348.508 433.74 348.595 433.74 348.248C433.74 348.178 434.106 347.831 434.552 347.483C435.695 346.598 436.766 345.087 437.148 343.837C437.529 342.586 437.624 338.523 437.277 338.401C437.169 338.367 437.034 338.505 436.978 338.731C436.737 339.669 434.703 342.534 433.132 344.149C431.508 345.799 429.985 346.91 428.096 347.813C426.646 348.508 423.751 349.463 423.086 349.463C422.645 349.463 422.746 349.151 423.277 348.873C424.684 348.126 426.394 346.25 427.32 344.41C428.275 342.517 428.198 341.058 427.111 340.503C425.887 339.86 425.231 340.346 424.374 342.517C423.048 345.868 422.12 346.685 419.342 346.945C418.283 347.049 418.048 347.154 417.47 347.674C415.108 349.845 412.967 350.314 409.688 349.411C406.507 348.525 406.352 348.248 409.037 348.23C410.063 348.23 411.234 348.161 411.639 348.091C412.561 347.9 413.88 347.015 414.605 346.059C415.153 345.347 415.155 345.347 414.87 344.774C414.618 344.271 414.61 344.08 414.808 343.403C415.225 341.926 415.226 341.683 414.83 341.562C414.311 341.406 412.936 341.631 412.076 342.031C411.672 342.222 410.772 342.882 410.079 343.507C407.222 346.077 405.38 347.084 403.529 347.101C402.506 347.119 402.296 347.049 401.389 346.459C400.453 345.851 400.354 345.834 399.913 346.042C399.655 346.181 399.21 346.337 398.927 346.407C398.644 346.476 398.059 346.685 397.625 346.876C395.028 348.022 394.638 348.421 394.527 350.054C394.435 351.408 394.237 351.616 393.848 350.748ZM378.285 313.048C378.139 312.405 377.97 311.12 377.911 310.217C377.805 308.585 377.958 307.682 378.783 305.042C378.941 304.539 378.679 304.539 378.052 305.059C377.783 305.285 377.171 305.685 376.694 305.945C376.216 306.223 375.708 306.536 375.565 306.657C375.313 306.865 372.757 308.289 370.616 309.418C369.51 309.991 367.202 310.981 366.622 311.137C366.431 311.19 365.415 311.485 364.364 311.78C363.314 312.075 362.258 312.37 362.02 312.422C359.219 312.978 357.783 313.291 356.897 313.516C356.019 313.76 349.611 313.951 348.114 313.794C346.801 313.655 346.329 313.43 346.738 313.169C346.99 313.013 348.01 312.735 349.43 312.475C353.006 311.78 353.681 311.537 355.631 310.269C356.559 309.661 357.38 309.071 357.455 308.949C357.63 308.672 359.858 306.744 360.544 306.275C361.041 305.928 362.447 305.146 363.757 304.486C364.09 304.313 365.146 303.844 366.101 303.427C368.485 302.399 371.048 301.058 371.571 300.57C371.809 300.346 372.221 300.083 372.483 299.984C372.952 299.806 373.117 299.391 372.799 299.193C372.709 299.14 372.377 299.206 372.061 299.341C369.901 300.268 366.844 300.664 364.311 300.345C362.4 300.103 361.987 299.888 363.088 299.707C364.446 299.485 365.899 299.072 367.49 298.455C368.35 298.122 369.56 297.655 370.182 297.419C370.802 297.181 371.583 296.823 371.918 296.625C372.801 296.099 374.921 294.546 375.174 294.241C375.584 293.746 376.414 291.883 376.612 291.019C376.963 289.484 376.281 284.862 375.622 284.315C375.437 284.16 375.141 284.186 374.351 284.426C373.521 284.676 373.014 284.714 371.745 284.619C369.932 284.481 369.565 284.365 368.966 283.742C368.727 283.491 368.317 283.082 368.055 282.83C367.318 282.123 367.464 281.649 368.284 282.088C368.765 282.345 370.689 282.344 371.47 282.087C372.823 281.639 374.136 280.505 375.365 278.716C376.024 277.761 376.02 277.841 375.501 274.18C375.086 271.249 375.068 270.578 375.327 267.494C375.666 263.443 376.426 261.205 378.179 259.083C378.621 258.546 378.84 258.133 378.773 257.959C378.323 256.794 378.14 255.304 378.243 253.645C378.354 251.876 378.451 251.339 378.665 251.35C378.901 251.36 379.933 253.288 380.353 254.503C380.872 256.002 381.273 257.909 381.287 258.942C381.296 259.671 381.289 259.68 380.688 259.68C380.327 259.68 379.971 259.803 379.813 259.984C379.054 260.849 378.637 261.496 378.043 262.74C377.416 264.047 377.39 264.179 377.425 265.716C377.446 266.678 377.562 267.552 377.713 267.887C377.854 268.196 378.12 268.805 378.305 269.241C378.491 269.677 379.056 270.655 379.559 271.412C381.433 274.23 381.751 275.399 381.284 277.759C380.968 279.352 380.929 282.272 381.2 283.834C381.685 286.605 383.223 288.757 385.668 290.082C386.762 290.676 386.771 290.677 388.937 290.65C390.701 290.627 391.262 290.556 391.932 290.266C393.115 289.754 393.818 289.238 394.761 288.187C396.065 286.737 396.249 285.99 396.407 281.474C396.51 278.574 396.631 277.276 396.909 276.09C397.685 272.772 398.432 270.893 399.604 269.318C400.735 267.797 401.389 265.301 401.089 263.658C401.025 263.304 401.042 262.889 401.129 262.733C401.429 262.196 401.125 261.859 400.059 261.547C399.49 261.38 398.877 261.243 398.698 261.243C398.519 261.243 398.33 261.199 398.278 261.147C398.133 261.005 398.937 258.596 399.618 257.122C399.948 256.406 400.611 255.293 401.091 254.646C402.607 252.6 402.871 252.591 402.409 254.602C402.07 256.073 401.461 257.481 400.709 258.534C400.441 258.907 400.224 259.287 400.224 259.379C400.224 259.473 400.53 260.006 400.903 260.566C401.593 261.599 401.895 262.311 402.367 264.021C402.838 265.727 402.904 266.638 402.914 271.662C402.926 276.224 402.958 276.733 403.322 278.155C403.852 280.222 404.276 281.067 405.368 282.248C406.597 283.575 407.587 283.931 408.893 283.512C409.589 283.29 409.822 283.274 409.989 283.443C410.157 283.61 410.091 283.747 409.685 284.085C407.957 285.523 405.597 286.423 403.548 286.423C402.758 286.423 402.308 286.492 402.308 286.616C402.308 287.154 402.898 289.38 403.211 290.024C403.725 291.078 404.54 291.9 405.394 292.221C406.351 292.582 408.613 292.586 409.985 292.23C410.56 292.082 411.072 292.004 411.126 292.058C411.303 292.235 410.399 293.049 408.994 293.975C407.598 294.895 405.686 295.731 403.828 296.234C403.279 296.384 402.829 296.563 402.829 296.635C402.829 296.707 403.473 296.894 404.262 297.052C409.812 298.158 411.871 299.539 413.351 303.149C413.611 303.774 413.891 304.261 413.971 304.209C414.051 304.156 414.117 304.365 414.117 304.66C414.117 304.955 414.196 305.355 414.295 305.528C414.394 305.719 414.429 305.876 414.374 305.876C414.155 305.876 413.297 305.355 413.082 305.094C412.736 304.677 410.701 303.375 409.341 302.699C407.249 301.658 403.635 300.965 401.006 301.102C399.286 301.19 394.751 301.744 394.601 301.883C394.455 302.021 396.386 303.08 397.272 303.358C397.51 303.427 398.191 303.809 398.783 304.209C399.653 304.782 400.063 305.233 400.91 306.518C402.277 308.619 402.277 308.689 400.881 308.22C398.099 307.282 394.698 307.421 390.152 308.637C389.433 308.828 386.087 309.245 385.463 309.21C385.224 309.21 384.472 309.14 383.789 309.071C382.692 308.967 382.47 309.001 381.855 309.349C381.186 309.713 380.167 310.79 379.778 311.519C379.676 311.71 379.429 312.336 379.229 312.891C379.03 313.464 378.797 314.003 378.71 314.09C378.616 314.176 378.444 313.76 378.285 313.048ZM340.964 310.286C340.369 310.095 340.676 309.904 341.746 309.783C344.41 309.488 349.517 307.699 349.517 307.074C349.517 306.865 349.638 306.848 347.294 307.3C343.849 307.96 335.451 307.786 335.451 307.074C335.451 306.935 335.8 306.831 337.708 306.397C340.143 305.858 343.092 304.573 343.092 304.052C343.092 303.861 342.98 303.844 342.614 303.965C342.352 304.052 341.315 304.295 340.313 304.486C337.915 304.973 332.546 305.042 331.726 304.608C331.16 304.295 331.264 304.209 332.412 304.07C333.891 303.879 335.765 303.306 336.97 302.67C338.917 301.647 338.691 301.434 335.979 301.734C334.433 301.906 333.662 301.904 332.019 301.722C329.098 301.397 328.14 301.248 327.549 301.031C327.263 300.926 326.891 300.791 326.725 300.73C326.23 300.553 326.377 300.315 326.985 300.312C329.05 300.3 332.403 299.254 333.292 298.344C334.296 297.314 334.461 296.932 334.332 295.93C334.202 294.911 334.053 294.663 333.231 294.086C332.681 293.699 332.638 293.695 331.863 293.959C331.017 294.248 330.411 294.658 328.852 295.991C326.732 297.808 324.651 298.375 323.17 297.544L322.484 297.158L321.263 297.521C320.074 297.875 319.096 297.898 317.651 297.608C316.014 297.278 313.64 294.984 313.296 293.402C313.201 292.966 313.241 292.985 313.887 293.669C314.268 294.074 315.036 294.659 315.594 294.968C316.465 295.453 316.781 295.533 317.824 295.536C319.747 295.541 320.619 295.144 320.421 294.354C320.19 293.435 321.756 291.306 323.073 290.747C323.759 290.457 324.056 289.8 323.924 288.861C323.774 287.789 323.55 287.503 322.729 287.331C321.966 287.171 321.633 287.241 319.648 287.97C318.091 288.543 316.409 288.435 315.564 287.708C315.297 287.479 315.026 287.291 314.961 287.291C314.897 287.291 314.74 287.097 314.613 286.86C314.486 286.622 314.242 286.385 314.069 286.329C313.72 286.218 311.637 286.692 310.965 287.036C309.914 287.574 309.056 288.76 309.055 289.679C309.055 289.99 308.99 290.243 308.911 290.243C308.728 290.243 308.36 288.668 308.36 287.887C308.36 287.18 308.883 285.74 309.43 284.942C309.97 284.153 311.356 283.42 312.525 283.304C313.455 283.212 313.486 283.191 313.92 282.37C314.436 281.392 315.567 280.472 316.736 280.076C317.994 279.65 318.619 278.53 318.362 277.16C318.274 276.693 318.061 276.445 317.343 275.972C316.844 275.644 316.005 275.201 315.48 274.989C313.127 274.036 312.094 272.671 312.094 270.516C312.094 269.745 312.007 269.181 311.862 269.005C311.59 268.677 310.019 268.189 309.234 268.189C308.427 268.189 307.076 268.83 306.639 269.42C306.213 269.997 305.929 269.948 305.929 269.3C305.929 268.608 306.542 267.6 307.474 266.762C308.965 265.421 310.737 265.23 312.293 266.242C312.997 266.699 313.161 266.742 313.553 266.571C313.801 266.461 314.043 266.324 314.091 266.263C314.139 266.202 314.523 265.977 314.944 265.763C315.57 265.445 315.925 265.386 316.886 265.442C317.877 265.497 318.166 265.589 318.724 266.032C319.631 266.753 320.423 267.043 321.338 266.996C322.284 266.947 322.72 266.694 322.859 266.114C323.074 265.199 323.687 263.21 324 262.405C324.606 260.85 325.865 259.914 327.636 259.706L328.591 259.593L328.645 258.935C328.675 258.574 328.614 257.87 328.508 257.372C328.336 256.556 328.209 256.379 327.197 255.556C326.58 255.054 325.954 254.644 325.804 254.644C325.655 254.644 325.58 254.566 325.639 254.47C325.868 254.099 327.075 254.326 328.678 255.045C329.514 255.42 330.09 255.903 330.552 256.617C330.96 257.249 331.021 257.527 331.047 258.914C331.076 260.399 331.109 260.527 331.59 261.054C332.473 262.021 332.846 262.974 332.846 264.27C332.846 264.909 332.759 265.603 332.653 265.813C332.547 266.022 331.889 266.779 331.193 267.494C329.609 269.122 329.199 269.873 329.199 271.143C329.199 272.904 330.015 273.458 333.04 273.744C336.501 274.074 337.316 274.316 338.837 275.47C340.534 276.757 341.174 277.401 341.958 278.601C342.772 279.85 344.083 282.168 344.245 282.646C344.3 282.813 344.404 282.95 344.472 282.95C344.542 282.95 344.696 283.165 344.814 283.427C345.613 285.195 347.614 287.236 350.343 289.066C351.773 290.023 354.159 291.285 354.542 291.285C354.638 291.285 355.324 291.485 356.067 291.726C358.342 292.471 362.017 293.333 364.562 293.718C365.122 293.803 366.283 293.992 367.143 294.138C368.075 294.298 369.791 294.406 371.397 294.409L374.089 294.413L373.568 294.831C371.837 296.22 365.587 298.69 362.284 299.289C361.714 299.391 361.091 299.56 360.902 299.661C360.568 299.839 360.572 299.852 360.983 300.006C363.076 300.786 364.423 301.045 366.361 301.032C367.459 301.025 368.631 300.939 368.964 300.841C369.692 300.628 370.008 300.614 370.008 300.8C370.008 300.984 367.079 302.382 364.682 303.34C362.487 304.226 359.651 305.997 358.568 307.178C358.179 307.595 357.694 308.029 357.493 308.133C356.322 308.758 352.073 309.731 349.147 310.043C347.164 310.252 341.445 310.425 340.964 310.286ZM467.516 308.428C465.908 307.647 465.499 307.195 464.499 305.112C463.235 302.474 462.181 301.486 458.746 299.716C458.084 299.376 455.594 298.584 454.643 298.412C454.177 298.327 453.074 298.082 452.192 297.868C450.991 297.577 450.633 297.427 450.763 297.271C450.984 297.005 452.937 296.535 454.405 296.396C455.443 296.297 455.712 296.352 457.761 297.078C458.987 297.514 460.356 298.087 460.8 298.355C461.247 298.62 461.846 298.957 462.134 299.1C464.162 300.11 467.925 303.861 468.785 305.737C470.065 308.533 470.115 308.88 469.25 308.967C468.933 308.984 468.259 308.776 467.516 308.428ZM386.571 289.646C385.712 289.363 384.529 288.618 383.805 287.901C382.145 286.261 381.485 283.419 382.15 280.779C382.247 280.397 382.332 279.068 382.341 277.827C382.357 275.246 382.11 274.144 381.233 272.885C380.573 271.938 379.467 269.781 379.096 268.715C378.946 268.288 378.696 267.843 378.54 267.731C378.326 267.573 378.241 267.161 378.196 266.043C378.14 264.695 378.186 264.442 378.707 263.163C379.023 262.394 379.337 261.764 379.405 261.764C379.474 261.764 379.698 262.036 379.905 262.368C381.23 264.514 385.125 264.798 387.756 262.939C388.23 262.604 388.294 262.893 387.91 263.643C387.329 264.784 386.755 266.503 386.771 267.06C386.818 268.602 386.842 268.673 387.549 269.233C387.962 269.561 388.53 269.823 388.938 269.879L389.631 269.971L389.621 270.947C389.6 272.942 389.4 273.576 388.568 274.288C388.141 274.652 387.464 275.026 387.026 275.137C385.88 275.429 384.984 275.99 384.583 276.669C384.29 277.167 384.201 277.771 384.053 280.268C383.855 283.646 383.949 284.101 384.934 284.509C385.394 284.7 385.599 284.678 386.504 284.339C387.377 284.012 387.728 283.971 388.697 284.075C389.331 284.143 390.348 284.386 390.96 284.615C392.179 285.075 393.231 285.153 393.665 284.816C394.16 284.433 394.322 283.38 394.118 281.842C393.936 280.444 393.903 279.207 394.044 278.98C394.294 278.575 394.309 277.355 394.07 276.893C393.802 276.377 392.639 275.309 392.342 275.309C391.939 275.309 391 274.355 390.67 273.614C390.222 272.6 389.994 270.217 390.326 270.012C390.449 269.936 390.869 269.839 391.262 269.794C392.892 269.608 393.455 268.849 393.445 266.848C393.441 266.008 393.294 265.252 392.931 264.204C392.649 263.398 392.464 262.695 392.516 262.642C392.568 262.589 392.884 262.846 393.219 263.21C394.276 264.363 395.284 264.89 396.435 264.89C397.59 264.89 398.856 264.462 399.774 263.761C400.122 263.495 400.464 263.335 400.532 263.403C400.601 263.473 400.644 263.872 400.627 264.29C400.571 265.754 400.212 266.937 399.49 268.047C398.668 269.307 397.446 271.58 397.446 271.844C397.446 271.943 397.291 272.235 397.105 272.494C396.739 272.999 396.124 275.502 395.881 277.48C395.798 278.148 395.725 280.024 395.72 281.647C395.706 285.575 395.402 286.713 393.973 288.173C393.235 288.927 392.771 289.239 392.054 289.469C390.81 289.866 387.561 289.971 386.571 289.646ZM391.833 284.335C391.566 284.256 391.253 284.115 391.139 284.025C391.026 283.934 390.406 283.684 389.761 283.469C388.407 283.016 387.511 283.066 386.28 283.665C384.797 284.384 384.519 283.842 384.658 280.503C384.712 279.206 384.842 277.915 384.946 277.638C385.269 276.783 385.958 276.233 387.329 275.733C388.261 275.394 388.836 275.054 389.31 274.566C390.027 273.828 390.359 273.855 390.564 274.673C390.618 274.889 391.208 275.472 391.884 275.976C393.615 277.268 393.696 277.426 393.453 279.029C393.344 279.747 393.297 280.591 393.347 280.904C393.398 281.218 393.492 282.029 393.554 282.708C393.662 283.87 393.644 283.959 393.261 284.228C392.814 284.539 392.573 284.558 391.833 284.335ZM443.881 275.283C443.749 275.067 444.253 274.614 444.626 274.614C444.9 274.614 444.909 274.708 444.673 275.147C444.473 275.521 444.072 275.59 443.881 275.283ZM389.718 269.297C387.926 268.898 387.547 268.66 387.547 267.941C387.547 267.461 391.929 267.64 392.429 268.139C392.705 268.415 392.411 268.856 391.83 269.04C391.083 269.276 390.138 269.391 389.718 269.297ZM391.281 267.128C390.899 267.043 389.906 266.972 389.074 266.968C388.242 266.966 387.527 266.907 387.485 266.838C387.353 266.624 388.218 264.108 388.631 263.504C388.999 262.965 389.089 262.929 390.152 262.889C390.772 262.866 391.396 262.818 391.534 262.783C391.708 262.74 391.864 262.969 392.022 263.5C392.151 263.931 392.377 264.554 392.523 264.888C392.67 265.219 392.833 265.904 392.884 266.407L392.979 267.321L392.477 267.302C392.201 267.289 391.663 267.211 391.281 267.128ZM394.702 263.216C394.205 262.868 393.799 262.488 393.799 262.372C393.799 262.017 396.432 261.541 397.67 261.672C398.767 261.786 399.703 262.061 399.703 262.267C399.703 262.571 399.088 263.193 398.482 263.502C398.019 263.74 397.461 263.848 396.706 263.848C395.721 263.848 395.509 263.782 394.702 263.216ZM382.598 262.922C382.312 262.811 381.914 262.625 381.718 262.512C381.273 262.257 380.334 260.93 380.488 260.776C380.551 260.715 381.285 260.658 382.121 260.649C383.605 260.635 383.678 260.654 385.342 261.488C387.247 262.443 387.282 262.599 385.667 262.952C384.519 263.202 383.282 263.191 382.598 262.922ZM386.853 261.001C385.356 260.302 384.496 260.013 383.423 259.854L381.99 259.638L381.989 258.834C381.985 256.448 380.318 251.15 379.422 250.669C378.981 250.434 378.795 249.95 379.054 249.709C379.2 249.573 379.278 249.584 379.337 249.745C379.382 249.868 379.9 250.523 380.487 251.202C381.605 252.491 384.508 254.6 385.653 254.956C385.979 255.057 387.261 255.187 388.502 255.243C391.699 255.391 393.257 255.516 394.068 255.693C394.454 255.776 394.962 255.8 395.197 255.747C396.034 255.552 399.802 253.605 400.424 253.045C401.122 252.414 401.961 251.155 401.961 250.735C401.961 250.368 402.48 250.193 402.669 250.494C403.001 251.018 402.839 251.791 402.291 252.31C401.481 253.079 399.734 255.47 399.167 256.591C398.439 258.021 397.793 259.815 397.793 260.401C397.793 260.988 397.732 261.015 396.23 261.142C395.608 261.194 394.632 261.321 394.059 261.423C389.864 262.175 389.291 262.141 386.853 261.001Z" fill="#000080" fill-rule="nonzero" opacity="1" stroke="none"/>
</g>
<g id="Layer-3" vectornator:layerName="Layer 3">
<g fill="#000080" opacity="1" stroke="#000080" stroke-linecap="round" stroke-linejoin="round" stroke-width="3">
<path d="M359.307 528.919L358.542 524.219L350.654 522.99L348.394 527.219L345.152 526.714L357.112 506.561L357.879 506.681L362.52 529.419L359.307 528.919ZM356.492 512.158L351.752 520.982L358.048 521.962L356.492 512.158Z"/>
<path d="M378.502 531.623L369.337 514.738L367.524 530.027L364.761 529.699L367.287 508.388L368.451 508.526L377.425 524.533L379.172 509.798L381.936 510.125L379.374 531.727L378.502 531.623Z"/>
<path d="M397.586 533.285L387.802 516.751L386.557 532.096L383.783 531.871L385.518 510.482L386.686 510.576L396.247 526.239L397.447 511.449L400.221 511.674L398.462 533.356L397.586 533.285Z"/>
<path d="M402.323 522.399C402.458 519.296 403.349 516.735 404.997 514.715C406.644 512.695 408.789 511.742 411.433 511.857C414.409 511.987 416.648 513.047 418.149 515.038C419.651 517.029 420.327 519.742 420.177 523.176C420.024 526.698 419.109 529.422 417.432 531.348C415.754 533.274 413.433 534.172 410.467 534.043C407.764 533.926 405.696 532.78 404.26 530.606C402.825 528.432 402.18 525.696 402.323 522.399ZM405.397 522.532C405.289 524.991 405.685 527.066 406.584 528.757C407.483 530.448 408.816 531.332 410.582 531.409C412.582 531.496 414.139 530.806 415.254 529.34C416.368 527.873 416.985 525.774 417.104 523.042C417.345 517.52 415.416 514.67 411.318 514.491C409.504 514.412 408.091 515.094 407.08 516.536C406.069 517.977 405.508 519.976 405.397 522.532Z"/>
<path d="M448.268 534.065L445.553 520.312L441.035 534.444L440.303 534.453L435.315 520.435L432.99 534.248L430.207 534.281L433.963 512.775L435.296 512.759L440.596 528.356L445.124 512.641L446.443 512.625L451.051 534.031L448.268 534.065Z"/>
<path d="M469.529 533.078L466.269 519.445L462.318 533.746L461.586 533.784L456.043 519.976L454.272 533.871L451.492 534.015L454.387 512.376L455.718 512.307L461.636 527.68L465.534 511.797L466.851 511.729L472.309 532.934L469.529 533.078Z"/>
<path d="M487.883 531.498L481.781 523.412L477.672 532.442L474.726 532.714L480.003 521.046L473.26 511.283L476.135 511.032L481.448 518.691L485.733 510.145L488.665 509.874L482.984 520.829L490.975 531.212L487.883 531.498Z"/>
<path d="M504.466 529.529L498.104 521.645L494.291 530.804L491.355 531.172L496.25 519.338L489.193 509.8L492.059 509.456L497.617 516.938L501.622 508.257L504.544 507.891L499.222 519.025L507.547 529.142L504.466 529.529Z"/>
<path d="M510.409 528.664L507.213 507.443L510.11 507.007L513.306 528.228L510.409 528.664Z"/>
<path d="M518.659 527.376L515.106 506.212L517.996 505.727L521.548 526.891L518.659 527.376Z"/>
</g>
<path d="M280.685 133.641C276.964 135.61 277.11 132.894 277.039 204.954C277.039 243.903 277.326 276.266 277.755 281.966C281.689 335.026 305.789 383.744 346.051 420.25C357.135 430.291 364.143 435.312 400.044 459.06C426.502 476.634 431.51 479.689 433.656 479.689C435.802 479.689 441.023 476.432 467.623 458.859C484.932 447.39 502.52 435.383 506.74 432.26C548.003 401.115 576.608 355.86 586.333 306.327C589.766 288.549 589.766 289.229 590.05 211.809C590.263 155.832 590.121 138.121 589.479 136.626C587.62 132.42 598.991 132.692 433.511 132.692C309.431 132.76 282.114 132.898 280.685 133.641ZM577.175 215.632C576.959 284.908 576.888 286.604 575.387 295.902C573.458 307.367 570.525 319.172 567.021 329.419C554.15 367.281 528.045 402.02 494.795 425.769C491.291 428.279 476.057 438.526 460.969 448.43L433.652 466.548L405.19 447.754C366.215 422.037 358.206 415.932 344.689 401.681C315.656 371.215 298.418 336.136 291.555 293.593C290.555 287.351 290.339 276.767 290.126 215.632L289.839 144.929L433.652 144.929L577.462 144.929L577.175 215.632Z" fill="#000080" fill-rule="nonzero" opacity="1" stroke="none"/>
<path d="M278.65 84.3611C271.719 91.1125 264.059 99.473 257.885 108.798C246.931 125.343 236.068 143.996 226.731 162.658C220.423 175.266 212.24 194.397 207.769 208.47C201.819 227.198 198.294 240.319 195.029 260.896C190.428 289.884 191.063 319.633 195.735 347.679C202.61 388.941 224.611 423.465 246.597 451.489C263.796 473.411 286.921 487.752 307.238 498.286L309.337 490.241C289.206 479.809 267.868 465.874 251.385 444.839C230.18 417.777 210.594 384.776 202.146 345.451C197 321.513 195.806 295.248 198.506 269.814C200.871 247.533 206.817 225.204 212.609 204.901C217.371 188.211 222.923 175.21 229.696 161.516C238.283 144.153 247.719 127.22 257.749 111.759C264.242 101.751 272.926 92.7156 279.9 85.9223L278.65 84.3611Z" fill="#000080" fill-rule="nonzero" opacity="1" stroke="none"/>
<path d="M269.845 473.696C269.845 473.696 255.574 467.153 244.249 469.081C226.27 472.141 224.612 488.328 224.612 488.328C224.612 488.328 231.825 494.822 247.296 492.355C265.42 489.463 269.845 473.696 269.845 473.696L269.845 473.696Z" fill="#000080" fill-rule="nonzero" opacity="1" stroke="none"/>
<path d="M245.542 449.522C245.542 449.522 233.516 441.249 222.113 441.371C202.373 441.583 201.189 456.789 201.189 456.789C201.189 456.789 208.335 464.265 224.145 463.958C242.376 463.603 245.542 449.522 245.542 449.522L245.542 449.522Z" fill="#000080" fill-rule="nonzero" opacity="1" stroke="none"/>
<path d="M227.564 424.099C227.564 424.099 216.129 409.564 205.068 405.545C185.92 398.586 179.577 414.745 179.577 414.745C179.577 414.745 186.695 427.129 202.055 432.569C219.767 438.841 227.564 424.099 227.564 424.099Z" fill="#000080" fill-rule="nonzero" opacity="1" stroke="none"/>
<path d="M207.262 384.938C207.262 384.938 197.483 369.989 184.096 364.024C166.625 356.239 158.413 371.522 158.173 371.905C158.173 371.905 165.332 384.972 180.268 390.701C200.302 398.385 207.262 384.938 207.262 384.938Z" fill="#000080" fill-rule="nonzero" opacity="1" stroke="none"/>
<path d="M197.593 353.774C197.593 353.774 188.485 333.66 174.9 324.166C161.704 314.938 152.063 322.797 151.824 323.105C151.824 323.105 158.603 341.071 171.074 349.68C188.02 361.377 197.595 353.772 197.595 353.772L197.593 353.774Z" fill="#000080" fill-rule="nonzero" opacity="1" stroke="none"/>
<path d="M194.658 326.426C189.796 319.794 189.434 301.768 182.486 287.14C172.793 266.732 156.803 268.211 156.564 268.404C156.564 268.404 158.275 293.829 170.397 309.196C183.28 325.527 194.657 326.428 194.657 326.428L194.658 326.426Z" fill="#000080" fill-rule="nonzero" opacity="1" stroke="none"/>
<path d="M193.315 283.571C193.315 283.571 193.787 261.472 189.769 244.69C184.163 221.281 168.861 216.685 168.595 216.777C168.595 216.777 166.113 241.809 174.984 261.294C184.411 282.003 193.316 283.57 193.316 283.57L193.315 283.571Z" fill="#000080" fill-rule="nonzero" opacity="1" stroke="none"/>
<path d="M199.796 242.156C199.796 242.156 202.848 223.604 201.302 205.982C198.971 179.422 184.72 173.799 184.447 173.838C184.447 173.838 179.562 198.438 186.512 219.499C193.898 241.882 199.796 242.156 199.796 242.156L199.796 242.156Z" fill="#000080" fill-rule="nonzero" opacity="1" stroke="none"/>
<path d="M212.351 197.689C212.351 197.689 217.314 180.907 216.679 163.167C215.796 138.546 204.292 128.145 204.019 128.131C204.019 128.131 192.927 142.635 199.298 173.854C203.162 192.792 212.351 197.689 212.351 197.689L212.351 197.689Z" fill="#000080" fill-rule="nonzero" opacity="1" stroke="none"/>
<path d="M228.323 161.13C228.323 161.13 235.699 144.653 237.739 127.137C239.655 110.692 235.054 92.7766 234.027 91.1301C234.027 91.1301 222.026 98.7796 222.475 128.137C222.777 147.882 228.323 161.13 228.323 161.13L228.323 161.13Z" fill="#000080" fill-rule="nonzero" opacity="1" stroke="none"/>
<path d="M247.946 125.852C247.946 125.852 256.741 112.27 259.031 93.6999C260.927 78.3108 259.016 61.5876 257.018 57.4136C257.018 57.4136 245.547 67.7495 244.714 93.8885C244.085 113.617 247.037 123.007 247.946 125.854L247.946 125.852Z" fill="#000080" fill-rule="nonzero" opacity="1" stroke="none"/>
<path d="M262.181 104.216C262.181 104.216 278.942 105.094 287.271 98.0806C296.595 90.2299 305.745 73.1893 306.467 68.2147C306.467 68.2147 291.788 58.8797 278.101 75.9313C267.771 88.8006 262.986 101.303 262.181 104.216Z" fill="#000080" fill-rule="nonzero" opacity="1" stroke="none"/>
<path d="M243.714 133.54C243.714 133.54 251.731 119.928 265.507 116.411C276.125 113.701 284.288 116.203 289.529 120.632C289.529 120.632 281.443 135.655 265.946 137.726C252.386 139.538 245.706 134.764 243.714 133.54L243.714 133.54Z" fill="#000080" fill-rule="nonzero" opacity="1" stroke="none"/>
<path d="M227.147 164.924C227.147 164.924 234.781 151.868 248.556 148.352C259.175 145.641 264.273 148.421 269.514 152.85C269.514 152.85 263.057 167.179 247.56 169.25C233.999 171.061 229.139 166.149 227.147 164.924L227.147 164.924Z" fill="#000080" fill-rule="nonzero" opacity="1" stroke="none"/>
<path d="M211.066 205.866C211.066 205.866 218.196 189.774 231.09 181.91C244.303 173.852 251.089 177.7 256.771 180.776C254.959 184.718 247.543 201.151 235.519 206.084C222.415 211.46 213.172 206.583 211.066 205.866L211.066 205.866Z" fill="#000080" fill-rule="nonzero" opacity="1" stroke="none"/>
<path d="M201.521 242.227C201.521 242.227 207.84 225.437 220.313 216.255C233.094 206.847 240.052 209.981 245.872 212.46C244.259 216.58 237.672 233.74 225.923 239.908C213.117 246.629 203.658 242.724 201.521 242.227L201.521 242.227Z" fill="#000080" fill-rule="nonzero" opacity="1" stroke="none"/>
<path d="M196.508 285.44C201.977 275.273 204.95 264.342 213.363 253.463C223.729 240.059 232.623 244.332 238.66 245.198C235.688 253.292 231.226 266.097 222.005 275.744C210.961 287.299 198.671 285.353 196.508 285.441L196.508 285.44Z" fill="#000080" fill-rule="nonzero" opacity="1" stroke="none"/>
<path d="M197.187 325.255C201.837 314.264 204.043 305.697 211.565 293.52C220.831 278.52 229.616 281.183 235.682 281.064C233.353 289.589 229.429 302.343 221.01 313.426C210.926 326.7 199.329 324.817 197.187 325.255Z" fill="#000080" fill-rule="nonzero" opacity="1" stroke="none"/>
<path d="M203.167 357.002C210.162 341.34 209.28 337.795 216.126 324.808C223.48 310.861 232.767 311.245 238.807 310.42C236.957 319.189 234.194 331.051 226.355 342.996C217.995 355.734 209.3 354.094 203.167 357.002L203.167 357.002Z" fill="#000080" fill-rule="nonzero" opacity="1" stroke="none"/>
<path d="M214.66 388.112C219.07 374.254 218.309 365.601 222.353 355.779C228.967 339.714 235.451 339.021 241.49 338.196C236.673 358.211 237.788 358.304 232.485 370.495C227.326 382.357 220.315 383.954 214.66 388.112L214.66 388.112Z" fill="#000080" fill-rule="nonzero" opacity="1" stroke="none"/>
<path d="M228.516 414.271C231.03 399.451 228.478 394.916 231.16 384.158C235.548 366.562 241.823 364.094 247.644 361.62C246.974 373.432 247.985 380.926 243.42 393.728C240.196 402.769 233.522 408.63 228.516 414.271Z" fill="#000080" fill-rule="nonzero" opacity="1" stroke="none"/>
<path d="M256.444 385.175C256.444 385.175 261.485 399.288 259.81 415.645C257.438 438.821 248.898 442.294 248.898 442.294C248.898 442.294 244.034 431.76 244.529 410.386C245.057 387.555 256.444 385.174 256.444 385.174L256.444 385.175Z" fill="#000080" fill-rule="nonzero" opacity="1" stroke="none"/>
<path d="M274.638 408.783C274.638 408.783 279.682 423.073 278.579 439.532C277.164 460.625 269.199 465.902 269.199 465.902C269.199 465.902 264.182 454.127 263.968 436.356C263.642 409.219 274.638 408.784 274.638 408.784L274.638 408.783Z" fill="#000080" fill-rule="nonzero" opacity="1" stroke="none"/>
<path d="M584.45 84.3611C591.381 91.1125 599.041 99.473 605.214 108.798C616.168 125.343 627.032 143.996 636.369 162.658C642.676 175.266 650.86 194.397 655.331 208.47C661.281 227.198 664.805 240.319 668.071 260.896C672.671 289.884 672.037 319.633 667.364 347.679C660.49 388.941 638.489 423.465 616.503 451.489C599.303 473.411 576.179 487.752 555.862 498.286L553.776 490.247C573.911 479.808 595.249 465.874 611.732 444.838C632.936 417.78 652.519 384.781 660.971 345.45C666.115 321.511 667.31 295.244 664.61 269.813C662.245 247.532 656.299 225.203 650.507 204.9C645.745 188.21 640.193 175.209 633.42 161.515C624.833 144.152 615.397 127.219 605.367 111.758C598.874 101.75 590.19 92.7145 583.216 85.9212L584.45 84.3611Z" fill="#000080" fill-rule="nonzero" opacity="1" stroke="none"/>
<path d="M593.285 473.696C593.285 473.696 607.556 467.153 618.881 469.081C636.86 472.141 638.518 488.328 638.518 488.328C638.518 488.328 631.305 494.822 615.833 492.355C597.709 489.463 593.285 473.696 593.285 473.696L593.285 473.696Z" fill="#000080" fill-rule="nonzero" opacity="1" stroke="none"/>
<path d="M617.554 449.522C617.554 449.522 629.58 441.249 640.983 441.371C660.723 441.583 661.906 456.789 661.906 456.789C661.906 456.789 654.761 464.265 638.951 463.958C620.719 463.603 617.554 449.522 617.554 449.522L617.554 449.522Z" fill="#000080" fill-rule="nonzero" opacity="1" stroke="none"/>
<path d="M635.565 424.099C635.565 424.099 647.001 409.564 658.062 405.545C677.21 398.586 683.553 414.745 683.553 414.745C683.553 414.745 676.435 427.129 661.075 432.569C643.362 438.841 635.565 424.099 635.565 424.099Z" fill="#000080" fill-rule="nonzero" opacity="1" stroke="none"/>
<path d="M655.852 384.938C655.852 384.938 665.632 369.989 679.019 364.024C696.49 356.239 704.702 371.522 704.941 371.905C704.941 371.905 697.783 384.972 682.847 390.701C662.813 398.385 655.853 384.938 655.853 384.938L655.852 384.938Z" fill="#000080" fill-rule="nonzero" opacity="1" stroke="none"/>
<path d="M665.522 353.774C665.522 353.774 674.63 333.66 688.215 324.166C701.413 314.942 711.053 322.798 711.293 323.107C711.293 323.107 704.514 341.073 692.042 349.682C675.097 361.38 665.522 353.774 665.522 353.774L665.522 353.774Z" fill="#000080" fill-rule="nonzero" opacity="1" stroke="none"/>
<path d="M668.442 326.426C673.302 319.795 673.665 301.769 680.613 287.139C690.307 266.731 706.296 268.211 706.535 268.402C706.535 268.402 704.823 293.827 692.702 309.194C679.819 325.526 668.441 326.426 668.441 326.426L668.442 326.426Z" fill="#000080" fill-rule="nonzero" opacity="1" stroke="none"/>
<path d="M669.807 283.571C669.807 283.571 669.335 261.472 673.353 244.69C678.959 221.281 694.261 216.685 694.527 216.777C694.527 216.777 697.009 241.809 688.139 261.294C678.712 282.003 669.807 283.57 669.807 283.57L669.807 283.571Z" fill="#000080" fill-rule="nonzero" opacity="1" stroke="none"/>
<path d="M663.323 242.156C663.323 242.156 660.27 223.604 661.817 205.982C664.147 179.422 678.399 173.799 678.671 173.838C678.671 173.838 683.557 198.438 676.606 219.499C669.22 241.882 663.323 242.156 663.323 242.156L663.323 242.156Z" fill="#000080" fill-rule="nonzero" opacity="1" stroke="none"/>
<path d="M650.771 197.689C650.771 197.689 645.808 180.907 646.444 163.167C647.327 138.546 658.83 128.145 659.103 128.131C659.103 128.131 670.195 142.635 663.825 173.854C659.96 192.792 650.771 197.689 650.771 197.689L650.771 197.689Z" fill="#000080" fill-rule="nonzero" opacity="1" stroke="none"/>
<path d="M634.769 161.13C634.769 161.13 627.393 144.653 625.353 127.137C623.437 110.692 628.038 92.7766 629.065 91.1301C629.065 91.1301 641.066 98.7796 640.617 128.137C640.315 147.882 634.769 161.13 634.769 161.13L634.769 161.13Z" fill="#000080" fill-rule="nonzero" opacity="1" stroke="none"/>
<path d="M615.165 125.852C615.165 125.852 606.37 112.27 604.08 93.6999C602.181 78.308 604.092 61.5848 606.093 57.4109C606.093 57.4109 617.564 67.7467 618.397 93.8858C619.026 113.614 616.074 123.004 615.165 125.851L615.165 125.852Z" fill="#000080" fill-rule="nonzero" opacity="1" stroke="none"/>
<path d="M600.945 104.216C600.945 104.216 584.185 105.094 575.855 98.0806C566.531 90.2299 557.381 73.1893 556.659 68.2147C556.659 68.2147 571.338 58.8797 585.025 75.9313C595.355 88.8006 600.14 101.303 600.945 104.216Z" fill="#000080" fill-rule="nonzero" opacity="1" stroke="none"/>
<path d="M619.412 133.54C619.412 133.54 611.395 119.928 597.619 116.411C587.001 113.701 578.838 116.203 573.597 120.632C573.597 120.632 581.683 135.655 597.18 137.726C610.74 139.538 617.42 134.764 619.412 133.54L619.412 133.54Z" fill="#000080" fill-rule="nonzero" opacity="1" stroke="none"/>
<path d="M635.945 164.924C635.945 164.924 628.311 151.868 614.535 148.352C603.917 145.641 598.819 148.421 593.578 152.85C593.578 152.85 600.035 167.179 615.532 169.25C629.093 171.061 633.953 166.149 635.945 164.924L635.945 164.924Z" fill="#000080" fill-rule="nonzero" opacity="1" stroke="none"/>
<path d="M652.06 205.866C652.06 205.866 644.93 189.774 632.036 181.91C618.823 173.852 612.037 177.7 606.355 180.776C608.167 184.718 615.583 201.151 627.607 206.084C640.711 211.46 649.954 206.583 652.06 205.866L652.06 205.866Z" fill="#000080" fill-rule="nonzero" opacity="1" stroke="none"/>
<path d="M661.578 242.227C661.578 242.227 655.259 225.437 642.787 216.255C630.006 206.847 623.047 209.981 617.227 212.46C618.841 216.58 625.427 233.74 637.177 239.908C649.982 246.629 659.442 242.724 661.578 242.227L661.578 242.227Z" fill="#000080" fill-rule="nonzero" opacity="1" stroke="none"/>
<path d="M666.584 285.44C661.115 275.273 658.142 264.342 649.729 253.463C639.363 240.059 630.469 244.332 624.432 245.198C627.404 253.292 631.866 266.097 641.086 275.744C652.131 287.299 664.421 285.353 666.584 285.441L666.584 285.44Z" fill="#000080" fill-rule="nonzero" opacity="1" stroke="none"/>
<path d="M665.939 325.255C661.289 314.264 659.083 305.697 651.561 293.52C642.295 278.52 633.51 281.183 627.445 281.064C629.773 289.589 633.697 302.343 642.116 313.426C652.2 326.7 663.797 324.817 665.939 325.255Z" fill="#000080" fill-rule="nonzero" opacity="1" stroke="none"/>
<path d="M659.948 357.002C652.952 341.34 653.835 337.795 646.988 324.808C639.635 310.861 630.347 311.245 624.308 310.42C626.158 319.189 628.921 331.051 636.76 342.996C645.119 355.734 653.814 354.094 659.947 357.002L659.948 357.002Z" fill="#000080" fill-rule="nonzero" opacity="1" stroke="none"/>
<path d="M648.458 388.112C644.048 374.254 644.81 365.601 640.766 355.779C634.152 339.714 627.668 339.021 621.629 338.196C626.446 358.211 625.33 358.304 630.633 370.495C635.793 382.357 642.804 383.954 648.458 388.112L648.458 388.112Z" fill="#000080" fill-rule="nonzero" opacity="1" stroke="none"/>
<path d="M634.579 414.271C632.066 399.451 634.618 394.916 631.935 384.158C627.548 366.562 621.273 364.094 615.452 361.62C616.121 373.432 615.111 380.926 619.676 393.728C622.9 402.769 629.573 408.63 634.579 414.271Z" fill="#000080" fill-rule="nonzero" opacity="1" stroke="none"/>
<path d="M606.671 385.175C606.671 385.175 601.63 399.288 603.304 415.645C605.677 438.821 614.216 442.294 614.216 442.294C614.216 442.294 619.08 431.76 618.586 410.386C618.058 387.555 606.67 385.174 606.67 385.174L606.671 385.175Z" fill="#000080" fill-rule="nonzero" opacity="1" stroke="none"/>
<path d="M588.469 408.783C588.469 408.783 583.425 423.073 584.528 439.532C585.943 460.625 593.908 465.902 593.908 465.902C593.908 465.902 598.926 454.127 599.14 436.356C599.466 409.219 588.469 408.784 588.469 408.784L588.469 408.783Z" fill="#000080" fill-rule="nonzero" opacity="1" stroke="none"/>
<path d="M330.322 26.461C330.322 31.9348 333.763 40.2391 333.763 45.7129C313.965 43.5785 296.282 45.5958 284.038 60.6537C294.361 59.2668 302.93 60.8968 318.628 72.5504C301.366 76.3149 292.604 100.595 283.076 118.336C318.547 86.8158 335.203 91.4088 367.718 94.831C367.718 89.0323 364.056 82.2741 367.994 75.0298C389.776 70.373 411.718 68.2214 430.549 68.2034C451.94 68.993 474.011 70.3773 492.542 75.0296C495.235 80.462 492.925 89.0175 492.818 94.8308C525.331 91.3912 541.988 86.7888 577.46 118.306C567.932 100.593 559.169 76.2949 541.908 72.5287C557.605 60.8813 566.175 59.2486 576.497 60.6346C564.253 45.5803 546.571 43.5639 526.772 45.6902C526.772 40.2164 530.213 31.9121 530.213 26.4383C485.982 13.3437 459.274 7.59796 430.263 7.87715C386.65 8.97587 356.182 17.9277 330.321 26.4563L330.322 26.461ZM430.265 13.6636C464.134 15.72 498.259 21.1205 525.35 31.1819C521.695 47.9725 520.96 59.1731 524.792 76.8805C491.347 70.8894 458.819 59.4496 430.266 61.0535C397.351 61.6533 362.696 69.7674 335.74 76.8805C339.573 59.1731 338.838 47.9725 335.182 31.1819C367.366 21.0232 401.006 13.6744 430.268 13.6654L430.265 13.6636ZM322.028 48.6425C328.542 48.7027 332.68 50.6811 334.33 50.2253C334.33 62.4787 331.906 67.6013 331.906 79.8556C342.734 84.007 350.768 89.6648 362.072 91.2543C335.029 90.7455 325.454 75.8371 293.584 104.689C305.996 83.0653 316.691 73.0849 328.391 73.5433C320.591 69.4519 315.239 57.847 299.305 55.9584C308.681 50.0338 316.28 48.59 322.028 48.643L322.028 48.6425ZM538.501 48.6425C544.249 48.5895 551.848 50.0333 561.224 55.9579C545.29 57.8461 539.938 69.4514 532.138 73.5428C543.838 73.0843 554.534 83.0647 566.945 104.689C535.075 75.8366 525.5 90.745 498.457 91.2538C509.761 89.6641 517.795 84.0062 528.623 79.855C528.623 67.6016 526.2 62.4791 526.2 50.2247C527.85 50.6806 531.988 48.7021 538.501 48.642L538.501 48.6425Z" fill="#000080" fill-rule="evenodd" opacity="1" stroke="none"/>
<path d="M536.7 536.432C536.687 531.05 533.061 522.897 533.049 517.516C553.809 519.55 572.342 517.51 585.143 502.667C574.325 504.063 565.337 502.488 548.854 491.081C566.942 487.325 576.072 463.426 586.02 445.953C548.906 477.056 531.434 472.594 497.34 469.334C497.353 475.035 501.207 481.668 497.095 488.803C474.271 493.451 451.273 495.637 431.531 495.715C409.105 495.008 385.964 493.718 366.526 489.203C363.69 483.871 366.092 475.452 366.191 469.737C332.114 473.223 314.663 477.801 277.403 446.93C287.433 464.313 296.675 488.174 314.779 491.821C298.349 503.323 289.369 504.955 278.545 503.626C291.415 518.387 309.957 520.313 330.708 518.159C330.721 523.54 327.133 531.716 327.145 537.097C373.544 549.829 401.557 555.392 431.97 555.024C477.688 553.804 509.609 544.905 536.702 536.437L536.7 536.432ZM431.955 549.335C396.443 547.422 360.656 542.223 332.232 532.418C336.026 515.898 336.771 504.884 332.713 487.487C367.788 493.27 401.915 504.413 431.845 502.744C466.349 502.048 502.662 493.959 530.904 486.879C526.927 504.301 527.723 515.31 531.594 531.806C497.878 541.897 462.628 549.23 431.952 549.333L431.955 549.335ZM545.344 514.598C538.515 514.559 534.173 512.628 532.444 513.081C532.416 501.034 534.946 495.99 534.918 483.942C523.556 479.895 515.121 474.359 503.266 472.832C531.618 473.246 541.691 487.872 575.035 459.403C562.073 480.703 550.883 490.55 538.617 490.137C546.803 494.134 552.44 505.526 569.149 507.332C559.333 513.187 551.37 514.631 545.345 514.597L545.344 514.598ZM318.405 515.294C312.38 515.364 304.41 513.969 294.567 508.175C311.267 506.267 316.851 494.84 325.019 490.793C312.754 491.281 301.518 481.503 288.458 460.283C321.934 488.547 331.939 473.859 360.288 473.272C348.441 474.871 340.032 480.459 328.689 484.575C328.717 496.622 331.27 501.651 331.298 513.699C329.567 513.256 325.234 515.214 318.405 515.294L318.405 515.294Z" fill="#000080" fill-rule="evenodd" opacity="1" stroke="none"/>
</g>
</svg>
